<svg width="289" height="219" viewBox="0 0 289 219" fill="none" xmlns="http://www.w3.org/2000/svg">
<g filter="url(#filter0_d_286_192)">
<path d="M12.8336 21.4259C12.8336 23.2801 11.3305 24.7831 9.47638 24.7831C7.62222 24.7831 6.11912 23.2801 6.11912 21.4259C6.11912 19.5717 7.62222 18.0686 9.47638 18.0686C11.3305 18.0686 12.8336 19.5717 12.8336 21.4259Z" fill="white"/>
<path d="M20.8911 21.4259C20.8911 23.2801 19.388 24.7831 17.5338 24.7831C15.6796 24.7831 14.1765 23.2801 14.1765 21.4259C14.1765 19.5717 15.6796 18.0686 17.5338 18.0686C19.388 18.0686 20.8911 19.5717 20.8911 21.4259Z" fill="#5C6F68"/>
<path d="M28.9485 21.4259C28.9485 23.2801 27.4454 24.7831 25.5912 24.7831C23.7371 24.7831 22.234 23.2801 22.234 21.4259C22.234 19.5717 23.7371 18.0686 25.5912 18.0686C27.4454 18.0686 28.9485 19.5717 28.9485 21.4259Z" fill="black"/>
<path d="M19.503 41.5696C19.503 43.4238 17.9999 44.9269 16.1457 44.9269C14.2915 44.9269 12.7884 43.4238 12.7884 41.5696C12.7884 39.7155 14.2915 38.2124 16.1457 38.2124C17.9999 38.2124 19.503 39.7155 19.503 41.5696Z" fill="#1EFFBC"/>
<path d="M27.5604 41.5696C27.5604 43.4238 26.0573 44.9269 24.2031 44.9269C22.349 44.9269 20.8459 43.4238 20.8459 41.5696C20.8459 39.7155 22.349 38.2124 24.2031 38.2124C26.0573 38.2124 27.5604 39.7155 27.5604 41.5696Z" fill="#5C6F68"/>
<path d="M35.6178 41.5696C35.6178 43.4238 34.1147 44.9269 32.2606 44.9269C30.4064 44.9269 28.9033 43.4238 28.9033 41.5696C28.9033 39.7155 30.4064 38.2124 32.2606 38.2124C34.1147 38.2124 35.6178 39.7155 35.6178 41.5696Z" fill="black"/>
<path d="M15.4742 152.527C15.4742 149.653 17.804 147.323 20.678 147.323H38.4959L37.743 153.404L37.2073 157.731H37.0606H20.678C17.804 157.731 15.4742 155.401 15.4742 152.527Z" fill="#5C6F68"/>
<path d="M139.693 34.8551H263.912V48.2841H139.693V34.8551Z" fill="white"/>
<path d="M150.436 41.5696C150.436 43.4238 148.933 44.9269 147.079 44.9269C145.225 44.9269 143.722 43.4238 143.722 41.5696C143.722 39.7155 145.225 38.2124 147.079 38.2124C148.933 38.2124 150.436 39.7155 150.436 41.5696Z" fill="#5C6F68"/>
<path d="M158.494 41.5696C158.494 43.4238 156.99 44.9269 155.136 44.9269C153.282 44.9269 151.779 43.4238 151.779 41.5696C151.779 39.7155 153.282 38.2124 155.136 38.2124C156.99 38.2124 158.494 39.7155 158.494 41.5696Z" fill="#1EFFBC"/>
<path d="M166.551 41.5696C166.551 43.4238 165.048 44.9269 163.194 44.9269C161.34 44.9269 159.836 43.4238 159.836 41.5696C159.836 39.7155 161.34 38.2124 163.194 38.2124C165.048 38.2124 166.551 39.7155 166.551 41.5696Z" fill="black"/>
<path d="M188.373 81.2215C188.373 73.8049 194.386 67.7925 201.802 67.7925C209.219 67.7925 215.231 73.8049 215.231 81.2215C215.231 88.6382 209.219 94.6506 201.802 94.6506C194.386 94.6506 188.373 88.6382 188.373 81.2215Z" fill="white"/>
<path d="M150.436 132.333C150.436 134.187 148.933 135.69 147.079 135.69C145.225 135.69 143.722 134.187 143.722 132.333C143.722 130.479 145.225 128.976 147.079 128.976C148.933 128.976 150.436 130.479 150.436 132.333Z" fill="#1EFFBC"/>
<path d="M158.494 132.333C158.494 134.187 156.99 135.69 155.136 135.69C153.282 135.69 151.779 134.187 151.779 132.333C151.779 130.479 153.282 128.976 155.136 128.976C156.99 128.976 158.494 130.479 158.494 132.333Z" fill="#5C6F68"/>
<path d="M166.551 132.333C166.551 134.187 165.048 135.69 163.194 135.69C161.34 135.69 159.836 134.187 159.836 132.333C159.836 130.479 161.34 128.976 163.194 128.976C165.048 128.976 166.551 130.479 166.551 132.333Z" fill="black"/>
<path d="M144.348 183.474C153.245 192.457 176.376 205.033 197.728 183.474C200.098 181.082 203.414 176.586 206.542 170.217C203.09 172.787 198.652 175.431 193.024 178.092C196.881 174.103 196.883 168.613 196 164.5C178.617 182.586 156.579 185.532 144.348 183.474Z" fill="#5C6F68"/>
<path d="M203.278 144.124C199.963 145.184 196.774 148.331 194.82 155.09C194.361 156.519 195.19 160.77 195.662 162.717C195.902 163.428 195.83 163.709 196 164.5C196.883 168.613 196.881 174.103 193.024 178.092C198.652 175.431 203.09 172.787 206.542 170.217C215.544 163.518 217.843 157.325 217.064 152.662C216.673 150.321 215.506 148.366 214.023 146.926C213.374 146.296 212.665 145.764 211.933 145.341C211.351 145.006 210.725 144.704 210.066 144.453C207.998 143.666 205.606 143.38 203.278 144.124Z" fill="white"/>
<path d="M36.999 158.121L46.3966 150.522L38.8819 146.183L37.743 153.404L37.2073 157.731H37.0606L36.999 158.121Z" fill="white"/>
<path d="M38.8819 146.183L46.3966 150.522L57.3604 141.655L53.2221 139.266L41.0785 132.255L39.9728 139.266L38.8819 146.183Z" fill="#1EFFBC"/>
<path d="M125.043 24.4258L108.761 15.0255L101.205 28.1119L101.189 28.1406L97.3123 34.8551L89.559 48.2841L85.6824 54.9987L79.6736 65.4062L75.0216 73.4636L69.0129 83.8711L64.3609 91.9285L58.3521 102.336L53.7002 110.393L47.6914 120.801L43.0394 128.858L41.0785 132.255L53.2221 139.266L57.3604 141.655L58.7398 139.266L64.7486 128.858L69.4005 120.801L75.4093 110.393L80.0612 102.336L86.07 91.9285L90.722 83.8711L96.7308 73.4636L101.383 65.4062L107.392 54.9987L111.268 48.2841L119.021 34.8551L122.898 28.1406L122.915 28.1119L125.043 24.4258Z" fill="black"/>
<path d="M108.761 15.0255L125.043 24.4258L130.609 14.784L132.563 11.4003L116.281 2L108.9 14.784L108.761 15.0255Z" fill="white"/>
<path d="M287 24.415L282.321 21.7137L270.671 39.7101L263.912 50.1523L224.773 110.612L219.458 118.823L215.111 125.538L206.313 139.128L204.914 141.289L203.278 144.124C205.606 143.38 207.998 143.666 210.066 144.453C210.725 144.704 211.351 145.006 211.933 145.341C212.665 145.764 213.374 146.296 214.023 146.926C215.506 148.366 216.673 150.321 217.064 152.662L218.951 149.393L224.54 139.128L231.94 125.538L235.596 118.823L263.912 66.8187L270.671 54.4039L287 24.415Z" fill="#5C6F68"/>
<path fill-rule="evenodd" clip-rule="evenodd" d="M2 14.784V28.1406H2.0452V28.1119H101.205L108.761 15.0255L108.9 14.784H2ZM9.47638 24.7831C11.3305 24.7831 12.8336 23.2801 12.8336 21.4259C12.8336 19.5717 11.3305 18.0686 9.47638 18.0686C7.62222 18.0686 6.11912 19.5717 6.11912 21.4259C6.11912 23.2801 7.62222 24.7831 9.47638 24.7831ZM17.5338 24.7831C19.388 24.7831 20.8911 23.2801 20.8911 21.4259C20.8911 19.5717 19.388 18.0686 17.5338 18.0686C15.6796 18.0686 14.1765 19.5717 14.1765 21.4259C14.1765 23.2801 15.6796 24.7831 17.5338 24.7831ZM25.5912 24.7831C27.4454 24.7831 28.9485 23.2801 28.9485 21.4259C28.9485 19.5717 27.4454 18.0686 25.5912 18.0686C23.7371 18.0686 22.234 19.5717 22.234 21.4259C22.234 23.2801 23.7371 24.7831 25.5912 24.7831Z" fill="#1EFFBC"/>
<path d="M2.0452 216.22H270.671V54.4039L263.912 66.8187V118.823H235.596L231.94 125.538H263.912V139.128V209.505H139.693V139.128V125.538H215.111L219.458 118.823H177.63L139.693 118.823V48.2841V48.2664V34.8551H263.912V48.2664V48.2841V50.1523L270.671 39.7101V28.1119L270.671 28.1406H122.898L119.021 34.8551H132.978V48.2841V209.488H8.75973V48.2841V34.8551H97.3123L101.189 28.1406H2.0452V216.22Z" fill="black"/>
<path fill-rule="evenodd" clip-rule="evenodd" d="M8.75973 34.8551V48.2841H89.559L97.3123 34.8551H8.75973ZM16.1457 44.9269C17.9999 44.9269 19.503 43.4238 19.503 41.5696C19.503 39.7155 17.9999 38.2124 16.1457 38.2124C14.2915 38.2124 12.7884 39.7155 12.7884 41.5696C12.7884 43.4238 14.2915 44.9269 16.1457 44.9269ZM24.2031 44.9269C26.0573 44.9269 27.5604 43.4238 27.5604 41.5696C27.5604 39.7155 26.0573 38.2124 24.2031 38.2124C22.349 38.2124 20.8459 39.7155 20.8459 41.5696C20.8459 43.4238 22.349 44.9269 24.2031 44.9269ZM32.2606 44.9269C34.1147 44.9269 35.6178 43.4238 35.6178 41.5696C35.6178 39.7155 34.1147 38.2124 32.2606 38.2124C30.4064 38.2124 28.9033 39.7155 28.9033 41.5696C28.9033 43.4238 30.4064 44.9269 32.2606 44.9269Z" fill="white"/>
<path d="M132.978 48.2841V34.8551H119.021L111.268 48.2841H132.978Z" fill="white"/>
<path d="M132.978 209.488V48.2841H111.268L107.392 54.9987H121.06C123.934 54.9987 126.264 57.3285 126.264 60.2024C126.264 63.0764 123.934 65.4062 121.06 65.4062H101.383L96.7308 73.4636H121.06C123.934 73.4636 126.264 75.7934 126.264 78.6674C126.264 81.5413 123.934 83.8711 121.06 83.8711H90.722L86.07 91.9285H121.06C123.934 91.9285 126.264 94.2583 126.264 97.1323C126.264 100.006 123.934 102.336 121.06 102.336H80.0612L75.4093 110.393H121.06C123.934 110.393 126.264 112.723 126.264 115.597C126.264 118.471 123.934 120.801 121.06 120.801H69.4005L64.7486 128.858H121.06C123.934 128.858 126.264 131.188 126.264 134.062C126.264 136.936 123.934 139.266 121.06 139.266H58.7398L57.3604 141.655L46.3966 150.522L36.999 158.121L37.0606 157.731H20.678C17.804 157.731 15.4742 155.401 15.4742 152.527C15.4742 149.653 17.804 147.323 20.678 147.323H38.4959L37.743 153.404L38.8819 146.183L39.9728 139.266H20.678C17.804 139.266 15.4742 136.936 15.4742 134.062C15.4742 131.188 17.804 128.858 20.678 128.858H43.0394L47.6914 120.801H20.678C17.804 120.801 15.4742 118.471 15.4742 115.597C15.4742 112.723 17.804 110.393 20.678 110.393H53.7002L58.3521 102.336H20.678C17.804 102.336 15.4742 100.006 15.4742 97.1323C15.4742 94.2583 17.804 91.9285 20.678 91.9285H64.3609L69.0129 83.8711H20.678C17.804 83.8711 15.4742 81.5413 15.4742 78.6674C15.4742 75.7934 17.804 73.4636 20.678 73.4636H75.0216L79.6736 65.4062H20.678C17.804 65.4062 15.4742 63.0764 15.4742 60.2024C15.4742 57.3285 17.804 54.9987 20.678 54.9987H85.6824L89.559 48.2841H8.75973V209.488H132.978Z" fill="#1EFFBC"/>
<path d="M15.4742 60.2024C15.4742 63.0764 17.804 65.4062 20.678 65.4062H79.6736L85.6824 54.9987H20.678C17.804 54.9987 15.4742 57.3285 15.4742 60.2024Z" fill="#5C6F68"/>
<path d="M121.06 65.4062C123.934 65.4062 126.264 63.0764 126.264 60.2024C126.264 57.3285 123.934 54.9987 121.06 54.9987H107.392L101.383 65.4062H121.06Z" fill="#5C6F68"/>
<path d="M15.4742 78.6674C15.4742 81.5413 17.804 83.8711 20.678 83.8711H69.0129L75.0216 73.4636H20.678C17.804 73.4636 15.4742 75.7934 15.4742 78.6674Z" fill="#5C6F68"/>
<path d="M121.06 83.8711C123.934 83.8711 126.264 81.5413 126.264 78.6674C126.264 75.7934 123.934 73.4636 121.06 73.4636H96.7308L90.722 83.8711H121.06Z" fill="#5C6F68"/>
<path d="M15.4742 97.1323C15.4742 100.006 17.804 102.336 20.678 102.336H58.3521L64.3609 91.9285H20.678C17.804 91.9285 15.4742 94.2583 15.4742 97.1323Z" fill="#5C6F68"/>
<path d="M121.06 102.336C123.934 102.336 126.264 100.006 126.264 97.1323C126.264 94.2583 123.934 91.9285 121.06 91.9285H86.07L80.0612 102.336H121.06Z" fill="#5C6F68"/>
<path d="M15.4742 115.597C15.4742 118.471 17.804 120.801 20.678 120.801H47.6914L53.7002 110.393H20.678C17.804 110.393 15.4742 112.723 15.4742 115.597Z" fill="#5C6F68"/>
<path d="M121.06 120.801C123.934 120.801 126.264 118.471 126.264 115.597C126.264 112.723 123.934 110.393 121.06 110.393H75.4093L69.4005 120.801H121.06Z" fill="#5C6F68"/>
<path d="M15.4742 134.062C15.4742 136.936 17.804 139.266 20.678 139.266H39.9728L41.0785 132.255L43.0394 128.858H20.678C17.804 128.858 15.4742 131.188 15.4742 134.062Z" fill="#5C6F68"/>
<path d="M121.06 139.266C123.934 139.266 126.264 136.936 126.264 134.062C126.264 131.188 123.934 128.858 121.06 128.858H64.7486L58.7398 139.266H121.06Z" fill="#5C6F68"/>
<path fill-rule="evenodd" clip-rule="evenodd" d="M139.693 125.538V139.128H206.313L215.111 125.538H139.693ZM147.079 135.69C148.933 135.69 150.436 134.187 150.436 132.333C150.436 130.479 148.933 128.976 147.079 128.976C145.225 128.976 143.722 130.479 143.722 132.333C143.722 134.187 145.225 135.69 147.079 135.69ZM155.136 135.69C156.99 135.69 158.494 134.187 158.494 132.333C158.494 130.479 156.99 128.976 155.136 128.976C153.282 128.976 151.779 130.479 151.779 132.333C151.779 134.187 153.282 135.69 155.136 135.69ZM163.194 135.69C165.048 135.69 166.551 134.187 166.551 132.333C166.551 130.479 165.048 128.976 163.194 128.976C161.34 128.976 159.836 130.479 159.836 132.333C159.836 134.187 161.34 135.69 163.194 135.69Z" fill="white"/>
<path d="M263.912 209.505V139.128H224.54L218.951 149.393L217.064 152.662C217.843 157.325 215.544 163.518 206.542 170.217C203.414 176.586 200.098 181.082 197.728 183.474C176.376 205.033 153.245 192.457 144.348 183.474C156.579 185.532 178.617 182.586 196 164.5C195.83 163.709 195.902 163.428 195.662 162.717C195.19 160.77 194.361 156.519 194.82 155.09C196.774 148.331 199.963 145.184 203.278 144.124L204.914 141.289L206.313 139.128H139.693V209.505H263.912Z" fill="#1EFFBC"/>
<path d="M197.774 97.3364C186.649 97.3364 177.63 106.355 177.63 117.48V118.823H219.458L224.773 110.612C221.965 102.868 214.544 97.3364 205.831 97.3364H197.774Z" fill="white"/>
<path fill-rule="evenodd" clip-rule="evenodd" d="M139.693 48.2841V118.823L177.63 118.823V117.48C177.63 106.355 186.649 97.3364 197.774 97.3364H205.831C214.544 97.3364 221.965 102.868 224.773 110.612L263.912 50.1523V48.2841H139.693ZM201.802 67.7925C194.386 67.7925 188.373 73.8049 188.373 81.2215C188.373 88.6382 194.386 94.6506 201.802 94.6506C209.219 94.6506 215.231 88.6382 215.231 81.2215C215.231 73.8049 209.219 67.7925 201.802 67.7925Z" fill="#1EFFBC"/>
<path d="M263.912 118.823V66.8187L235.596 118.823H263.912Z" fill="#1EFFBC"/>
<path d="M263.912 139.128V125.538H231.94L224.54 139.128H263.912Z" fill="white"/>
<path d="M270.671 28.1119L270.671 14.784H130.609L125.043 24.4258L122.915 28.1119H270.671Z" fill="#1EFFBC"/>
</g>
<defs>
<filter id="filter0_d_286_192" x="0" y="0.5" width="289" height="218.22" filterUnits="userSpaceOnUse" color-interpolation-filters="sRGB">
<feFlood flood-opacity="0" result="BackgroundImageFix"/>
<feColorMatrix in="SourceAlpha" type="matrix" values="0 0 0 0 0 0 0 0 0 0 0 0 0 0 0 0 0 0 127 0" result="hardAlpha"/>
<feOffset dy="0.5"/>
<feGaussianBlur stdDeviation="1"/>
<feComposite in2="hardAlpha" operator="out"/>
<feColorMatrix type="matrix" values="0 0 0 0 0 0 0 0 0 0 0 0 0 0 0 0 0 0 0.5 0"/>
<feBlend mode="normal" in2="BackgroundImageFix" result="effect1_dropShadow_286_192"/>
<feBlend mode="normal" in="SourceGraphic" in2="effect1_dropShadow_286_192" result="shape"/>
</filter>
</defs>
</svg>
