<svg width="300" height="235" viewBox="0 0 300 235" fill="none" xmlns="http://www.w3.org/2000/svg">
<path fill-rule="evenodd" clip-rule="evenodd" d="M80.4873 168.629C82.5218 168.629 84.4577 168.207 86.2123 167.446L91.942 162.956C93.7895 160.535 94.8868 157.51 94.8868 154.229C94.8868 146.277 88.4399 139.83 80.4873 139.83C72.5347 139.83 66.0879 146.277 66.0879 154.229C66.0879 162.182 72.5347 168.629 80.4873 168.629ZM87.4922 147.102L89.5286 149.138L77.3103 161.357L75.2739 159.32L75.2819 159.312L71.4464 155.477L73.4828 153.44L77.3183 157.276L87.4922 147.102Z" fill="black"/>
<path d="M168.392 20.131C162.871 20.131 158.395 24.6068 158.395 30.1278V94.1075C158.395 99.2067 162.213 103.414 167.146 104.027L179.806 94.1075H166.393C165.288 94.1075 164.393 93.2124 164.393 92.1082C164.393 91.0039 165.288 90.1088 166.393 90.1088H184.909L195.115 82.1113H166.393C165.288 82.1113 164.393 81.2162 164.393 80.112C164.393 79.0078 165.288 78.1126 166.393 78.1126H200.218L210.424 70.1151H166.393C165.288 70.1151 164.393 69.22 164.393 68.1158C164.393 67.0116 165.288 66.1164 166.393 66.1164H215.528L225.734 58.119H166.393C165.288 58.119 164.393 57.2238 164.393 56.1196C164.393 55.0154 165.288 54.1202 166.393 54.1202H230.837L241.043 46.1228H166.393C165.288 46.1228 164.393 45.2276 164.393 44.1234C164.393 43.0192 165.288 42.124 166.393 42.124H246.146L256.353 34.1266H166.393C165.288 34.1266 164.393 33.2314 164.393 32.1272C164.393 31.023 165.288 30.1278 166.393 30.1278H261.456L274.035 20.2709C273.49 20.1789 272.93 20.131 272.359 20.131H168.392Z" fill="#5C6F68"/>
<path fill-rule="evenodd" clip-rule="evenodd" d="M91.1528 106.959V17.276C91.1528 15.0675 92.9431 13.2772 95.1515 13.2772H134.403C136.611 13.2772 138.402 15.0675 138.402 17.276V106.959C138.402 109.168 136.611 110.958 134.403 110.958H95.1515C92.9431 110.958 91.1528 109.168 91.1528 106.959ZM100.948 52.5198C97.4425 48.9737 95.2761 44.0867 95.2761 38.6908C95.2761 33.295 97.4425 28.408 100.948 24.8618C104.48 21.2889 109.372 19.0771 114.777 19.0771C120.182 19.0771 125.074 21.2889 128.606 24.8618C132.112 28.408 134.278 33.295 134.278 38.6908C134.278 44.0867 132.112 48.9737 128.606 52.5198C125.074 56.0927 120.182 58.3046 114.777 58.3046C109.372 58.3046 104.48 56.0927 100.948 52.5198ZM114.777 65.7212C120.183 65.7212 125.074 67.933 128.606 71.5059C132.112 75.0521 134.278 79.9391 134.278 85.3349C134.278 90.7308 132.112 95.6178 128.606 99.164C125.074 102.737 120.183 104.949 114.777 104.949C109.372 104.949 104.48 102.737 100.948 99.164C97.4425 95.6178 95.2761 90.7308 95.2761 85.3349C95.2761 79.9391 97.4425 75.0521 100.948 71.5059C104.48 67.933 109.372 65.7212 114.777 65.7212Z" fill="black"/>
<path d="M54.4958 130.952C48.9748 130.952 44.499 135.428 44.499 140.949V200.131L50.4971 195.431V185.145C50.4971 182.937 52.2874 181.147 54.4958 181.147H68.7271L81.0273 171.508H54.4958C52.2874 171.508 50.4971 169.718 50.4971 167.51V140.948C50.4971 138.74 52.2874 136.95 54.4958 136.95H106.479C108.688 136.95 110.478 138.74 110.478 140.948V148.431L120.491 140.585C120.675 138.547 122.388 136.95 124.474 136.95H125.131L132.785 130.952H54.4958Z" fill="black"/>
<path d="M52.2379 62.1177C52.2379 66.4718 48.7082 70.0015 44.354 70.0015C39.9999 70.0015 36.4702 66.4718 36.4702 62.1177C36.4702 57.7636 39.9999 54.2338 44.354 54.2338C48.7082 54.2338 52.2379 57.7636 52.2379 62.1177Z" fill="black"/>
<path d="M52.3437 72.3464C51.7279 71.7306 51.7279 70.7323 52.3437 70.1165C52.9594 69.5007 53.9578 69.5007 54.5736 70.1165L63.4931 79.036C64.1089 79.6518 64.1089 80.6502 63.4931 81.2659C62.8774 81.8817 61.879 81.8817 61.2632 81.2659L52.3437 72.3464Z" fill="black"/>
<path d="M42.7773 74.7318C42.7773 73.861 43.4832 73.1551 44.354 73.1551C45.2249 73.1551 45.9308 73.861 45.9308 74.7318V87.346C45.9308 88.2168 45.2249 88.9228 44.354 88.9228C43.4832 88.9228 42.7773 88.2168 42.7773 87.346V74.7318Z" fill="black"/>
<path d="M36.3644 72.3464C36.9802 71.7306 36.9802 70.7323 36.3644 70.1165C35.7486 69.5007 34.7503 69.5007 34.1345 70.1165L25.2149 79.036C24.5992 79.6518 24.5992 80.6502 25.2149 81.2659C25.8307 81.8817 26.8291 81.8817 27.4448 81.2659L36.3644 72.3464Z" fill="black"/>
<path d="M19.1257 63.6946C18.2549 63.6946 17.5489 62.9886 17.5489 62.1178C17.5489 61.247 18.2549 60.541 19.1257 60.541H31.7399C32.6107 60.541 33.3166 61.247 33.3166 62.1178C33.3166 62.9886 32.6107 63.6946 31.7399 63.6946H19.1257Z" fill="black"/>
<path d="M36.3644 51.8888C36.9802 52.5046 36.9802 53.5029 36.3644 54.1187C35.7486 54.7345 34.7503 54.7345 34.1345 54.1187L25.2149 45.1991C24.5992 44.5834 24.5992 43.585 25.2149 42.9692C25.8307 42.3535 26.8291 42.3535 27.4448 42.9692L36.3644 51.8888Z" fill="black"/>
<path d="M42.7773 36.8894C42.7773 36.0185 43.4832 35.3126 44.354 35.3126C45.2249 35.3126 45.9308 36.0185 45.9308 36.8894V49.5035C45.9308 50.3744 45.2249 51.0803 44.354 51.0803C43.4832 51.0803 42.7773 50.3744 42.7773 49.5035V36.8894Z" fill="black"/>
<path d="M52.3437 51.8888C51.7279 52.5046 51.7279 53.5029 52.3437 54.1187C52.9594 54.7345 53.9578 54.7345 54.5736 54.1187L63.4931 45.1991C64.1089 44.5834 64.1089 43.585 63.4931 42.9692C62.8774 42.3535 61.879 42.3535 61.2632 42.9692L52.3437 51.8888Z" fill="black"/>
<path d="M56.9682 63.6946C56.0974 63.6946 55.3914 62.9886 55.3914 62.1178C55.3914 61.247 56.0974 60.541 56.9682 60.541H69.5824C70.4532 60.541 71.1591 61.247 71.1591 62.1178C71.1591 62.9886 70.4532 63.6946 69.5824 63.6946H56.9682Z" fill="black"/>
<path d="M114.777 104.949C120.183 104.949 125.074 102.737 128.606 99.164L114.777 85.3349V104.949Z" fill="white"/>
<path d="M128.606 99.164C132.112 95.6178 134.278 90.7308 134.278 85.3349H114.777L128.606 99.164Z" fill="white"/>
<path d="M134.278 85.3349C134.278 79.9391 132.112 75.0521 128.606 71.5059L114.777 85.3349H134.278Z" fill="#1EFFBC"/>
<path d="M128.606 71.5059C125.074 67.933 120.183 65.7212 114.777 65.7212V85.3349L128.606 71.5059Z" fill="#1EFFBC"/>
<path d="M114.777 65.7212C109.372 65.7212 104.48 67.933 100.948 71.5059L114.777 85.3349V65.7212Z" fill="#1EFFBC"/>
<path d="M100.948 71.5059C97.4425 75.0521 95.2761 79.9391 95.2761 85.3349H114.777L100.948 71.5059Z" fill="#5C6F68"/>
<path d="M95.2761 85.3349C95.2761 90.7308 97.4425 95.6178 100.948 99.164L114.777 85.3349H95.2761Z" fill="#5C6F68"/>
<path d="M100.948 99.164C104.48 102.737 109.372 104.949 114.777 104.949V85.3349L100.948 99.164Z" fill="#5C6F68"/>
<path d="M114.777 38.6908V58.3046C120.182 58.3046 125.074 56.0927 128.606 52.5198L114.777 38.6908Z" fill="#5C6F68"/>
<path d="M114.777 38.6908L128.606 52.5198C132.112 48.9737 134.278 44.0867 134.278 38.6908H114.777Z" fill="#5C6F68"/>
<path d="M114.777 38.6908H134.278C134.278 33.295 132.112 28.408 128.606 24.8618L114.777 38.6908Z" fill="#5C6F68"/>
<path d="M114.777 38.6908L128.606 24.8618C125.074 21.2889 120.182 19.0771 114.777 19.0771V38.6908Z" fill="#5C6F68"/>
<path d="M114.777 38.6908V19.0771C109.372 19.0771 104.48 21.2889 100.948 24.8618L114.777 38.6908Z" fill="#5C6F68"/>
<path d="M95.2761 38.6908H114.777L100.948 24.8618C97.4425 28.408 95.2761 33.295 95.2761 38.6908Z" fill="#1EFFBC"/>
<path d="M95.2761 38.6908C95.2761 44.0867 97.4425 48.9737 100.948 52.5198L114.777 38.6908H95.2761Z" fill="#1EFFBC"/>
<path d="M114.777 38.6908L100.948 52.5198C104.48 56.0927 109.372 58.3046 114.777 58.3046V38.6908Z" fill="#1EFFBC"/>
<path d="M54.4958 136.95C52.2874 136.95 50.4971 138.74 50.4971 140.948V167.51C50.4971 169.718 52.2874 171.508 54.4958 171.508H81.0273L86.2123 167.446C84.4577 168.207 82.5218 168.629 80.4873 168.629C72.5347 168.629 66.0879 162.182 66.0879 154.229C66.0879 146.277 72.5347 139.83 80.4873 139.83C88.4399 139.83 94.8868 146.277 94.8868 154.229C94.8868 157.51 93.7895 160.535 91.942 162.956L110.478 148.431V140.948C110.478 138.74 108.688 136.95 106.479 136.95H54.4958Z" fill="#5C6F68"/>
<path d="M54.4958 181.147C52.2874 181.147 50.4971 182.937 50.4971 185.145V195.431L68.7271 181.147H54.4958Z" fill="#5C6F68"/>
<path d="M124.474 136.95C122.388 136.95 120.675 138.547 120.491 140.585L125.131 136.95H124.474Z" fill="#5C6F68"/>
<path d="M282.356 94.1075V30.1278C282.356 25.1779 278.758 21.0683 274.035 20.2709L261.456 30.1278H274.358C275.463 30.1278 276.358 31.023 276.358 32.1272C276.358 33.2314 275.463 34.1266 274.358 34.1266H256.353L246.146 42.124H274.358C275.463 42.124 276.358 43.0192 276.358 44.1234C276.358 45.2276 275.463 46.1228 274.358 46.1228H241.043L230.837 54.1202H274.358C275.463 54.1202 276.358 55.0154 276.358 56.1196C276.358 57.2238 275.463 58.119 274.358 58.119H225.734L215.528 66.1164H274.358C275.463 66.1164 276.358 67.0116 276.358 68.1158C276.358 69.22 275.463 70.1151 274.358 70.1151H210.424L200.218 78.1126H274.358C275.463 78.1126 276.358 79.0078 276.358 80.112C276.358 81.2162 275.463 82.1113 274.358 82.1113H195.115L184.909 90.1088H274.358C275.463 90.1088 276.358 91.0039 276.358 92.1082C276.358 93.2124 275.463 94.1075 274.358 94.1075H179.806L167.146 104.027C167.554 104.078 167.97 104.104 168.392 104.104H272.359C277.88 104.104 282.356 99.6286 282.356 94.1075Z" fill="#1EFFBC"/>
<path d="M181.835 140.949C181.835 135.428 177.36 130.952 171.839 130.952H132.785L125.131 136.95H171.839C174.047 136.95 175.837 138.74 175.837 140.949V211.726C175.837 213.935 174.047 215.725 171.839 215.725H124.474C122.265 215.725 120.475 213.935 120.475 211.726V140.949C120.475 140.826 120.48 140.705 120.491 140.585L110.478 148.431V167.51C110.478 169.718 108.688 171.508 106.479 171.508H81.0273L68.7271 181.147H106.479C108.688 181.147 110.478 182.937 110.478 185.145V211.726C110.478 213.935 108.688 215.725 106.479 215.725H54.4958C52.2874 215.725 50.4971 213.935 50.4971 211.726V195.431L44.499 200.131V211.726C44.499 217.247 48.9748 221.723 54.4959 221.723H171.839C177.36 221.723 181.835 217.247 181.835 211.726V140.949Z" fill="#1EFFBC"/>
<path d="M276.358 92.1082C276.358 91.0039 275.463 90.1088 274.358 90.1088H184.909L179.806 94.1075H274.358C275.463 94.1075 276.358 93.2124 276.358 92.1082Z" fill="#5C6F68"/>
<path d="M276.358 80.112C276.358 79.0078 275.463 78.1126 274.358 78.1126H200.218L195.115 82.1113H274.358C275.463 82.1113 276.358 81.2162 276.358 80.112Z" fill="#5C6F68"/>
<path d="M276.358 68.1158C276.358 67.0116 275.463 66.1164 274.358 66.1164H215.528L210.424 70.1151H274.358C275.463 70.1151 276.358 69.22 276.358 68.1158Z" fill="#5C6F68"/>
<path d="M276.358 56.1196C276.358 55.0154 275.463 54.1202 274.358 54.1202H230.837L225.734 58.119H274.358C275.463 58.119 276.358 57.2238 276.358 56.1196Z" fill="#5C6F68"/>
<path d="M276.358 44.1234C276.358 43.0192 275.463 42.124 274.358 42.124H246.146L241.043 46.1228H274.358C275.463 46.1228 276.358 45.2276 276.358 44.1234Z" fill="#5C6F68"/>
<path d="M276.358 32.1272C276.358 31.023 275.463 30.1278 274.358 30.1278H261.456L256.353 34.1266H274.358C275.463 34.1266 276.358 33.2314 276.358 32.1272Z" fill="#5C6F68"/>
<path d="M126.464 144.947C126.464 143.843 127.359 142.948 128.464 142.948H167.84C168.944 142.948 169.839 143.843 169.839 144.947V145.347C169.839 146.452 168.944 147.347 167.84 147.347H128.464C127.359 147.347 126.464 146.452 126.464 145.347V144.947Z" fill="#5C6F68"/>
<path fill-rule="evenodd" clip-rule="evenodd" d="M175.837 140.949C175.837 138.74 174.047 136.95 171.839 136.95H125.131L120.491 140.585C120.48 140.705 120.475 140.826 120.475 140.949V211.726C120.475 213.935 122.265 215.725 124.474 215.725H171.839C174.047 215.725 175.837 213.935 175.837 211.726V140.949ZM128.464 142.948C127.359 142.948 126.464 143.843 126.464 144.947V145.347C126.464 146.452 127.359 147.347 128.464 147.347H167.84C168.944 147.347 169.839 146.452 169.839 145.347V144.947C169.839 143.843 168.944 142.948 167.84 142.948H128.464ZM128.464 153.345C127.359 153.345 126.464 154.24 126.464 155.344V155.744C126.464 156.848 127.359 157.743 128.464 157.743H167.84C168.944 157.743 169.839 156.848 169.839 155.744V155.344C169.839 154.24 168.944 153.345 167.84 153.345H128.464ZM128.464 163.742C127.359 163.742 126.464 164.637 126.464 165.741V166.141C126.464 167.245 127.359 168.14 128.464 168.14H167.84C168.944 168.14 169.839 167.245 169.839 166.141V165.741C169.839 164.637 168.944 163.742 167.84 163.742H128.464ZM128.464 174.138C127.359 174.138 126.464 175.033 126.464 176.138V176.537C126.464 177.642 127.359 178.537 128.464 178.537H167.84C168.944 178.537 169.839 177.642 169.839 176.537V176.138C169.839 175.033 168.944 174.138 167.84 174.138H128.464ZM128.464 184.535C127.359 184.535 126.464 185.43 126.464 186.534V186.934C126.464 188.038 127.359 188.934 128.464 188.934H167.84C168.944 188.934 169.839 188.038 169.839 186.934V186.534C169.839 185.43 168.944 184.535 167.84 184.535H128.464ZM128.464 194.932C127.359 194.932 126.464 195.827 126.464 196.931V197.331C126.464 198.435 127.359 199.33 128.464 199.33H167.84C168.944 199.33 169.839 198.435 169.839 197.331V196.931C169.839 195.827 168.944 194.932 167.84 194.932H128.464ZM128.464 205.328C127.359 205.328 126.464 206.223 126.464 207.328V207.728C126.464 208.832 127.359 209.727 128.464 209.727H167.84C168.944 209.727 169.839 208.832 169.839 207.728V207.328C169.839 206.223 168.944 205.328 167.84 205.328H128.464Z" fill="black"/>
<path d="M126.464 155.344C126.464 154.24 127.359 153.345 128.464 153.345H167.84C168.944 153.345 169.839 154.24 169.839 155.344V155.744C169.839 156.848 168.944 157.743 167.84 157.743H128.464C127.359 157.743 126.464 156.848 126.464 155.744V155.344Z" fill="#5C6F68"/>
<path d="M126.464 165.741C126.464 164.637 127.359 163.742 128.464 163.742H167.84C168.944 163.742 169.839 164.637 169.839 165.741V166.141C169.839 167.245 168.944 168.14 167.84 168.14H128.464C127.359 168.14 126.464 167.245 126.464 166.141V165.741Z" fill="#5C6F68"/>
<path d="M126.464 176.138C126.464 175.033 127.359 174.138 128.464 174.138H167.84C168.944 174.138 169.839 175.033 169.839 176.138V176.537C169.839 177.642 168.944 178.537 167.84 178.537H128.464C127.359 178.537 126.464 177.642 126.464 176.537V176.138Z" fill="#5C6F68"/>
<path d="M126.464 186.534C126.464 185.43 127.359 184.535 128.464 184.535H167.84C168.944 184.535 169.839 185.43 169.839 186.534V186.934C169.839 188.038 168.944 188.934 167.84 188.934H128.464C127.359 188.934 126.464 188.038 126.464 186.934V186.534Z" fill="#5C6F68"/>
<path d="M126.464 196.931C126.464 195.827 127.359 194.932 128.464 194.932H167.84C168.944 194.932 169.839 195.827 169.839 196.931V197.331C169.839 198.435 168.944 199.33 167.84 199.33H128.464C127.359 199.33 126.464 198.435 126.464 197.331V196.931Z" fill="#5C6F68"/>
<path d="M126.464 207.328C126.464 206.223 127.359 205.328 128.464 205.328H167.84C168.944 205.328 169.839 206.223 169.839 207.328V207.728C169.839 208.832 168.944 209.727 167.84 209.727H128.464C127.359 209.727 126.464 208.832 126.464 207.728V207.328Z" fill="#5C6F68"/>
<path fill-rule="evenodd" clip-rule="evenodd" d="M110.478 185.145C110.478 182.937 108.688 181.147 106.479 181.147H68.7271L50.4971 195.431V211.726C50.4971 213.935 52.2874 215.725 54.4958 215.725H106.479C108.688 215.725 110.478 213.935 110.478 211.726V185.145ZM80.4875 212.846C88.446 212.846 94.8975 206.394 94.8975 198.436C94.8975 190.477 88.446 184.026 80.4875 184.026C72.5291 184.026 66.0775 190.477 66.0775 198.436C66.0775 206.394 72.5291 212.846 80.4875 212.846Z" fill="black"/>
<path fill-rule="evenodd" clip-rule="evenodd" d="M94.8975 198.436C94.8975 206.394 88.446 212.846 80.4875 212.846C72.5291 212.846 66.0775 206.394 66.0775 198.436C66.0775 190.477 72.5291 184.026 80.4875 184.026C88.446 184.026 94.8975 190.477 94.8975 198.436ZM85.5823 191.303L87.6202 193.341L82.5254 198.436L87.6201 203.53L85.5822 205.568L80.4875 200.474L75.3929 205.568L73.355 203.53L78.4497 198.436L73.3549 193.341L75.3928 191.303L80.4875 196.398L85.5823 191.303Z" fill="#1EFFBC"/>
<path d="M106.479 171.508C108.688 171.508 110.478 169.718 110.478 167.51V148.431L91.942 162.956C90.4569 164.902 88.4869 166.459 86.2123 167.446L81.0273 171.508H106.479Z" fill="black"/>
<path d="M166.393 90.1088C165.288 90.1088 164.393 91.0039 164.393 92.1082C164.393 93.2124 165.288 94.1075 166.393 94.1075H179.806L184.909 90.1088H166.393Z" fill="#1EFFBC"/>
<path d="M166.393 78.1126C165.288 78.1126 164.393 79.0078 164.393 80.112C164.393 81.2162 165.288 82.1113 166.393 82.1113H195.115L200.218 78.1126H166.393Z" fill="#1EFFBC"/>
<path d="M166.393 66.1164C165.288 66.1164 164.393 67.0116 164.393 68.1158C164.393 69.22 165.288 70.1151 166.393 70.1151H210.424L215.528 66.1164H166.393Z" fill="#1EFFBC"/>
<path d="M166.393 54.1202C165.288 54.1202 164.393 55.0154 164.393 56.1196C164.393 57.2238 165.288 58.119 166.393 58.119H225.734L230.837 54.1202H166.393Z" fill="#1EFFBC"/>
<path d="M166.393 42.124C165.288 42.124 164.393 43.0192 164.393 44.1234C164.393 45.2276 165.288 46.1228 166.393 46.1228H241.043L246.146 42.124H166.393Z" fill="#1EFFBC"/>
<path d="M166.393 30.1278C165.288 30.1278 164.393 31.023 164.393 32.1272C164.393 33.2314 165.288 34.1266 166.393 34.1266H256.353L261.456 30.1278H166.393Z" fill="#1EFFBC"/>
<path fill-rule="evenodd" clip-rule="evenodd" d="M282.356 94.1075V30.1278C282.356 25.1779 278.758 21.0683 274.035 20.2709L299.905 0V235H0L44.499 200.131V211.726C44.499 217.247 48.9748 221.723 54.4959 221.723H171.839C177.36 221.723 181.835 217.247 181.835 211.726V140.949C181.835 135.428 177.36 130.952 171.839 130.952H132.785L167.146 104.027C167.554 104.078 167.97 104.104 168.392 104.104H272.359C277.88 104.104 282.356 99.6286 282.356 94.1075ZM228.617 203.126C243.412 203.126 255.406 191.132 255.406 176.337C255.406 161.543 243.412 149.549 228.617 149.549C227.784 149.549 226.96 149.587 226.146 149.662C237.284 150.785 245.977 160.189 245.977 171.623C245.977 183.814 236.094 193.697 223.903 193.697C212.469 193.697 203.065 185.004 201.942 173.866C201.867 174.68 201.829 175.504 201.829 176.337C201.829 191.132 213.823 203.126 228.617 203.126Z" fill="black"/>
<path d="M255.406 176.337C255.406 191.132 243.412 203.126 228.617 203.126C213.823 203.126 201.829 191.132 201.829 176.337C201.829 175.504 201.867 174.68 201.942 173.866C203.065 185.004 212.469 193.697 223.903 193.697C236.094 193.697 245.977 183.814 245.977 171.623C245.977 160.189 237.284 150.785 226.146 149.662C226.96 149.587 227.784 149.549 228.617 149.549C243.412 149.549 255.406 161.543 255.406 176.337Z" fill="#1EFFBC"/>
<path d="M85.5823 191.303L87.6202 193.341L82.5254 198.436L87.6201 203.53L85.5822 205.568L80.4875 200.474L75.3929 205.568L73.355 203.53L78.4497 198.436L73.3549 193.341L75.3928 191.303L80.4875 196.398L85.5823 191.303Z" fill="black"/>
<path d="M87.4922 147.102L89.5286 149.138L77.3103 161.357L75.2739 159.32L75.2819 159.312L71.4464 155.477L73.4828 153.44L77.3183 157.276L87.4922 147.102Z" fill="#1EFFBC"/>
<path d="M86.2123 167.446L91.942 162.956C90.4569 164.902 88.4869 166.459 86.2123 167.446Z" fill="#1EFFBC"/>
</svg>
