<svg width="98" height="48" viewBox="0 0 98 48" fill="none" xmlns="http://www.w3.org/2000/svg">
<path fill-rule="evenodd" clip-rule="evenodd" d="M93.7119 47.2637L4 47.2637C1.79086 47.2637 0 45.4728 0 43.2637L0 3.99996C0 1.79082 1.79086 -3.8147e-05 4 -3.8147e-05L93.7119 -3.8147e-05C95.9211 -3.8147e-05 97.7119 1.79082 97.7119 3.99996V43.2637C97.7119 45.4728 95.9211 47.2637 93.7119 47.2637ZM39.2551 37.4652C35.7078 40.972 30.8192 43.1391 25.4217 43.1391C20.0241 43.1391 15.1356 40.972 11.5882 37.4652C8.01422 33.932 5.80167 29.0388 5.80167 23.6318C5.80167 18.2248 8.01422 13.3316 11.5882 9.79836C15.1356 6.29156 20.0241 4.12449 25.4217 4.12449C30.8192 4.12449 35.7078 6.29156 39.2551 9.79836C42.8291 13.3316 45.0416 18.2248 45.0416 23.6318C45.0416 29.0388 42.8291 33.932 39.2551 37.4652ZM52.4606 23.6318C52.4606 18.2248 54.6732 13.3316 58.2472 9.79835C61.7945 6.29154 66.683 4.12446 72.0806 4.12446C77.4782 4.12446 82.3667 6.29154 85.914 9.79835C89.488 13.3316 91.7006 18.2248 91.7006 23.6318C91.7006 29.0387 89.488 33.9319 85.914 37.4652C82.3667 40.972 77.4782 43.139 72.0806 43.139C66.683 43.139 61.7945 40.972 58.2472 37.4652C54.6732 33.9319 52.4606 29.0387 52.4606 23.6318Z" fill="#5C6F68"/>
<path d="M25.4217 43.1391C30.8192 43.1391 35.7078 40.972 39.2551 37.4652C42.8291 33.932 45.0416 29.0388 45.0416 23.6318L25.4217 23.6318L11.5882 37.4652C15.1356 40.972 20.0241 43.1391 25.4217 43.1391Z" fill="black"/>
<path d="M58.2472 9.79835C54.6732 13.3316 52.4606 18.2248 52.4606 23.6318C52.4606 29.0387 54.6732 33.9319 58.2472 37.4652L72.0806 23.6318V4.12446C66.683 4.12446 61.7945 6.29154 58.2472 9.79835Z" fill="#1EFFBC"/>
<path d="M25.4217 23.6318L45.0416 23.6318C45.0416 18.2248 42.8291 13.3316 39.2551 9.79836C35.7078 6.29156 30.8192 4.12449 25.4217 4.12449C20.0241 4.12449 15.1356 6.29156 11.5882 9.79836C8.01422 13.3316 5.80167 18.2248 5.80167 23.6318C5.80167 29.0388 8.01422 33.932 11.5882 37.4652L25.4217 23.6318Z" fill="#1EFFBC"/>
<path d="M85.914 9.79835C82.3667 6.29154 77.4782 4.12446 72.0806 4.12446V23.6318L91.7006 23.6318C91.7006 18.2248 89.488 13.3316 85.914 9.79835Z" fill="white"/>
<path d="M85.914 37.4652C89.488 33.9319 91.7006 29.0387 91.7006 23.6318L72.0806 23.6318L58.2472 37.4652C61.7945 40.972 66.683 43.139 72.0806 43.139C77.4782 43.139 82.3667 40.972 85.914 37.4652Z" fill="black"/>
</svg>
