<svg width="272" height="30" viewBox="0 0 272 30" fill="none" xmlns="http://www.w3.org/2000/svg">
<rect x="23.5" y="1.5" width="247" height="27" rx="13.5" fill="black" stroke="white" stroke-width="3"/>
<path fill-rule="evenodd" clip-rule="evenodd" d="M261.513 7.69096C263.836 9.974 263.869 13.7085 261.586 16.0322C259.514 18.1414 256.246 18.3632 253.922 16.6787L247.262 23.4573L246 22.2172L252.66 15.4385C250.935 13.1452 251.099 9.87369 253.171 7.76454C255.455 5.44086 259.189 5.40792 261.513 7.69096ZM254.743 14.5816C256.224 16.0375 258.606 16.0165 260.062 14.5346C261.518 13.0527 261.497 10.6711 260.015 9.21514C258.533 7.75916 256.152 7.78017 254.696 9.26207C253.24 10.744 253.261 13.1256 254.743 14.5816Z" fill="white"/>
<path d="M39.7386 23.36C38.5306 23.36 37.4426 23.16 36.4746 22.76C35.5146 22.352 34.7186 21.776 34.0866 21.032C33.4626 20.288 33.0546 19.404 32.8626 18.38L34.6626 18.08C34.9506 19.2 35.5586 20.08 36.4866 20.72C37.4146 21.352 38.5226 21.668 39.8106 21.668C40.6586 21.668 41.4186 21.536 42.0906 21.272C42.7626 21 43.2906 20.616 43.6746 20.12C44.0586 19.624 44.2506 19.036 44.2506 18.356C44.2506 17.908 44.1706 17.528 44.0106 17.216C43.8506 16.896 43.6386 16.632 43.3746 16.424C43.1106 16.216 42.8226 16.044 42.5106 15.908C42.1986 15.764 41.8946 15.648 41.5986 15.56L37.2186 14.252C36.6906 14.1 36.2026 13.908 35.7546 13.676C35.3066 13.436 34.9146 13.152 34.5786 12.824C34.2506 12.488 33.9946 12.096 33.8106 11.648C33.6266 11.2 33.5346 10.688 33.5346 10.112C33.5346 9.136 33.7906 8.292 34.3026 7.58C34.8146 6.868 35.5146 6.32 36.4026 5.936C37.2906 5.552 38.3026 5.364 39.4386 5.372C40.5906 5.372 41.6186 5.576 42.5226 5.984C43.4346 6.392 44.1866 6.976 44.7786 7.736C45.3706 8.488 45.7626 9.38 45.9546 10.412L44.1066 10.748C43.9866 9.996 43.7106 9.344 43.2786 8.792C42.8466 8.24 42.2946 7.816 41.6226 7.52C40.9586 7.216 40.2266 7.06 39.4266 7.052C38.6506 7.052 37.9586 7.184 37.3506 7.448C36.7506 7.704 36.2746 8.056 35.9226 8.504C35.5706 8.952 35.3946 9.464 35.3946 10.04C35.3946 10.624 35.5546 11.092 35.8746 11.444C36.2026 11.796 36.6026 12.072 37.0746 12.272C37.5546 12.472 38.0186 12.636 38.4666 12.764L41.8506 13.76C42.2026 13.856 42.6146 13.996 43.0866 14.18C43.5666 14.356 44.0306 14.612 44.4786 14.948C44.9346 15.276 45.3106 15.708 45.6066 16.244C45.9026 16.78 46.0506 17.46 46.0506 18.284C46.0506 19.084 45.8906 19.8 45.5706 20.432C45.2586 21.064 44.8146 21.596 44.2386 22.028C43.6706 22.46 43.0026 22.788 42.2346 23.012C41.4746 23.244 40.6426 23.36 39.7386 23.36ZM54.0117 23.36C52.7477 23.36 51.6517 23.08 50.7237 22.52C49.8037 21.96 49.0877 21.172 48.5757 20.156C48.0637 19.14 47.8077 17.948 47.8077 16.58C47.8077 15.164 48.0597 13.94 48.5637 12.908C49.0677 11.876 49.7757 11.08 50.6877 10.52C51.6077 9.96 52.6917 9.68 53.9397 9.68C55.2197 9.68 56.3117 9.976 57.2157 10.568C58.1197 11.152 58.8037 11.992 59.2677 13.088C59.7317 14.184 59.9437 15.492 59.9037 17.012H58.1037V16.388C58.0717 14.708 57.7077 13.44 57.0117 12.584C56.3237 11.728 55.3157 11.3 53.9877 11.3C52.5957 11.3 51.5277 11.752 50.7837 12.656C50.0477 13.56 49.6797 14.848 49.6797 16.52C49.6797 18.152 50.0477 19.42 50.7837 20.324C51.5277 21.22 52.5797 21.668 53.9397 21.668C54.8677 21.668 55.6757 21.456 56.3637 21.032C57.0597 20.6 57.6077 19.98 58.0077 19.172L59.6517 19.808C59.1397 20.936 58.3837 21.812 57.3837 22.436C56.3917 23.052 55.2677 23.36 54.0117 23.36ZM49.0557 17.012V15.536H58.9557V17.012H49.0557ZM66.0403 23.36C65.0643 23.36 64.2443 23.184 63.5803 22.832C62.9243 22.48 62.4323 22.012 62.1043 21.428C61.7763 20.844 61.6123 20.208 61.6123 19.52C61.6123 18.816 61.7523 18.216 62.0323 17.72C62.3203 17.216 62.7083 16.804 63.1963 16.484C63.6923 16.164 64.2643 15.92 64.9123 15.752C65.5683 15.592 66.2923 15.452 67.0843 15.332C67.8843 15.204 68.6643 15.096 69.4243 15.008C70.1923 14.912 70.8643 14.82 71.4403 14.732L70.8163 15.116C70.8403 13.836 70.5923 12.888 70.0723 12.272C69.5523 11.656 68.6483 11.348 67.3603 11.348C66.4723 11.348 65.7203 11.548 65.1043 11.948C64.4963 12.348 64.0683 12.98 63.8203 13.844L62.1043 13.34C62.4003 12.18 62.9963 11.28 63.8923 10.64C64.7883 10 65.9523 9.68 67.3843 9.68C68.5683 9.68 69.5723 9.904 70.3963 10.352C71.2283 10.792 71.8163 11.432 72.1603 12.272C72.3203 12.648 72.4243 13.068 72.4723 13.532C72.5203 13.996 72.5443 14.468 72.5443 14.948V23H70.9723V19.748L71.4283 19.94C70.9883 21.052 70.3043 21.9 69.3763 22.484C68.4483 23.068 67.3363 23.36 66.0403 23.36ZM66.2443 21.836C67.0683 21.836 67.7883 21.688 68.4043 21.392C69.0203 21.096 69.5163 20.692 69.8923 20.18C70.2683 19.66 70.5123 19.076 70.6243 18.428C70.7203 18.012 70.7723 17.556 70.7803 17.06C70.7883 16.556 70.7923 16.18 70.7923 15.932L71.4643 16.28C70.8643 16.36 70.2123 16.44 69.5083 16.52C68.8123 16.6 68.1243 16.692 67.4443 16.796C66.7723 16.9 66.1643 17.024 65.6203 17.168C65.2523 17.272 64.8963 17.42 64.5523 17.612C64.2083 17.796 63.9243 18.044 63.7003 18.356C63.4843 18.668 63.3763 19.056 63.3763 19.52C63.3763 19.896 63.4683 20.26 63.6523 20.612C63.8443 20.964 64.1483 21.256 64.5643 21.488C64.9883 21.72 65.5483 21.836 66.2443 21.836ZM75.6683 23V10.04H77.2523V13.16L76.9403 12.752C77.0843 12.368 77.2723 12.016 77.5043 11.696C77.7363 11.368 77.9883 11.1 78.2603 10.892C78.5963 10.596 78.9883 10.372 79.4363 10.22C79.8843 10.06 80.3363 9.968 80.7923 9.944C81.2483 9.912 81.6643 9.944 82.0403 10.04V11.696C81.5683 11.576 81.0523 11.548 80.4923 11.612C79.9323 11.676 79.4163 11.9 78.9443 12.284C78.5123 12.62 78.1883 13.024 77.9723 13.496C77.7563 13.96 77.6123 14.456 77.5403 14.984C77.4683 15.504 77.4323 16.02 77.4323 16.532V23H75.6683ZM89.4583 23.36C88.1543 23.36 87.0503 23.068 86.1463 22.484C85.2423 21.9 84.5543 21.096 84.0823 20.072C83.6183 19.04 83.3783 17.856 83.3623 16.52C83.3783 15.16 83.6263 13.968 84.1063 12.944C84.5863 11.912 85.2783 11.112 86.1823 10.544C87.0863 9.968 88.1823 9.68 89.4703 9.68C90.7823 9.68 91.9223 10 92.8903 10.64C93.8663 11.28 94.5343 12.156 94.8943 13.268L93.1663 13.82C92.8623 13.044 92.3783 12.444 91.7143 12.02C91.0583 11.588 90.3063 11.372 89.4583 11.372C88.5063 11.372 87.7183 11.592 87.0943 12.032C86.4703 12.464 86.0063 13.068 85.7023 13.844C85.3983 14.62 85.2423 15.512 85.2343 16.52C85.2503 18.072 85.6103 19.32 86.3143 20.264C87.0183 21.2 88.0663 21.668 89.4583 21.668C90.3383 21.668 91.0863 21.468 91.7023 21.068C92.3263 20.66 92.7983 20.068 93.1183 19.292L94.8943 19.82C94.4143 20.972 93.7103 21.852 92.7823 22.46C91.8543 23.06 90.7463 23.36 89.4583 23.36ZM106.731 23V16.388C106.731 15.668 106.663 15.008 106.527 14.408C106.391 13.8 106.171 13.272 105.867 12.824C105.571 12.368 105.183 12.016 104.703 11.768C104.231 11.52 103.655 11.396 102.975 11.396C102.351 11.396 101.799 11.504 101.319 11.72C100.847 11.936 100.447 12.248 100.119 12.656C99.7994 13.056 99.5554 13.544 99.3874 14.12C99.2194 14.696 99.1354 15.352 99.1354 16.088L97.8874 15.812C97.8874 14.484 98.1194 13.368 98.5834 12.464C99.0474 11.56 99.6874 10.876 100.503 10.412C101.319 9.948 102.255 9.716 103.311 9.716C104.087 9.716 104.763 9.836 105.339 10.076C105.923 10.316 106.415 10.64 106.815 11.048C107.223 11.456 107.551 11.924 107.799 12.452C108.047 12.972 108.227 13.528 108.339 14.12C108.451 14.704 108.507 15.288 108.507 15.872V23H106.731ZM97.3594 23V5.72H98.9554V15.476H99.1354V23H97.3594Z" fill="#1EFFBC"/>
</svg>
