<svg width="250" height="30" viewBox="0 0 250 30" fill="none" xmlns="http://www.w3.org/2000/svg">
<path d="M17.0891 22.9649C16.0136 22.9649 15.0449 22.7868 14.1831 22.4307C13.3284 22.0674 12.6197 21.5546 12.0571 20.8922C11.5015 20.2298 11.1383 19.4428 10.9673 18.5311L12.5699 18.264C12.8263 19.2611 13.3676 20.0446 14.1938 20.6144C15.02 21.1771 16.0065 21.4584 17.1532 21.4584C17.9082 21.4584 18.5848 21.3409 19.1831 21.1059C19.7814 20.8637 20.2515 20.5218 20.5934 20.0802C20.9353 19.6386 21.1062 19.1151 21.1062 18.5097C21.1062 18.1109 21.035 17.7725 20.8925 17.4948C20.7501 17.2099 20.5613 16.9748 20.3263 16.7896C20.0912 16.6045 19.8348 16.4513 19.5571 16.3302C19.2793 16.202 19.0086 16.0988 18.7451 16.0204L14.8455 14.8559C14.3754 14.7206 13.941 14.5496 13.5421 14.3431C13.1432 14.1294 12.7942 13.8765 12.4951 13.5845C12.2031 13.2854 11.9751 12.9364 11.8113 12.5375C11.6475 12.1386 11.5656 11.6828 11.5656 11.17C11.5656 10.301 11.7935 9.54961 12.2494 8.91571C12.7052 8.2818 13.3284 7.79391 14.119 7.45203C14.9096 7.11015 15.8106 6.94277 16.822 6.9499C17.8477 6.9499 18.7629 7.13152 19.5677 7.49477C20.3797 7.85802 21.0492 8.37796 21.5763 9.0546C22.1034 9.72411 22.4524 10.5183 22.6233 11.4371L20.978 11.7362C20.8712 11.0667 20.6254 10.4862 20.2408 9.99477C19.8562 9.50332 19.3647 9.12582 18.7665 8.86229C18.1753 8.59163 17.5236 8.45275 16.8113 8.44562C16.1204 8.44562 15.5043 8.56314 14.963 8.79819C14.4288 9.02611 14.0051 9.3395 13.6917 9.73836C13.3783 10.1372 13.2216 10.5931 13.2216 11.1059C13.2216 11.6258 13.364 12.0425 13.6489 12.3559C13.941 12.6693 14.2971 12.915 14.7173 13.0931C15.1447 13.2711 15.5578 13.4171 15.9566 13.5311L18.9694 14.4178C19.2828 14.5033 19.6496 14.628 20.0699 14.7918C20.4972 14.9485 20.9103 15.1764 21.3092 15.4755C21.7152 15.7676 22.0499 16.1522 22.3135 16.6294C22.577 17.1066 22.7088 17.712 22.7088 18.4456C22.7088 19.1579 22.5663 19.7953 22.2814 20.358C22.0036 20.9207 21.6083 21.3943 21.0955 21.779C20.5898 22.1636 19.9951 22.4556 19.3113 22.655C18.6347 22.8616 17.894 22.9649 17.0891 22.9649Z" fill="#1EFFBC"/>
<path d="M61.3553 22.9649C60.1943 22.9649 59.2114 22.7049 58.4065 22.1849C57.6017 21.665 56.9892 20.9492 56.5689 20.0375C56.1558 19.1187 55.9422 18.0646 55.9279 16.8751C55.9422 15.6643 56.163 14.603 56.5903 13.6913C57.0177 12.7725 57.6338 12.0603 58.4386 11.5546C59.2434 11.0418 60.2192 10.7854 61.366 10.7854C62.534 10.7854 63.549 11.0703 64.4108 11.6401C65.2798 12.2099 65.8745 12.9898 66.195 13.9798L64.6566 14.4713C64.3859 13.7804 63.955 13.2462 63.3638 12.8687C62.7798 12.4841 62.1103 12.2918 61.3553 12.2918C60.5077 12.2918 59.8061 12.4876 59.2506 12.8794C58.695 13.264 58.2819 13.8017 58.0112 14.4926C57.7406 15.1835 57.6017 15.9777 57.5946 16.8751C57.6088 18.2569 57.9293 19.368 58.5561 20.2084C59.1829 21.0418 60.116 21.4584 61.3553 21.4584C62.1387 21.4584 62.8047 21.2804 63.3531 20.9243C63.9087 20.561 64.3289 20.0339 64.6138 19.3431L66.195 19.8131C65.7677 20.8388 65.1409 21.6223 64.3147 22.1636C63.4885 22.6978 62.502 22.9649 61.3553 22.9649Z" fill="#1EFFBC"/>
<path fill-rule="evenodd" clip-rule="evenodd" d="M233.795 14.8103C235.277 16.2663 237.659 16.2452 239.115 14.7634C240.571 13.2815 240.55 10.8998 239.068 9.44386C237.586 7.98788 235.204 8.00889 233.748 9.49078C232.292 10.9727 232.313 13.3543 233.795 14.8103Z" fill="#1EFFBC"/>
<path fill-rule="evenodd" clip-rule="evenodd" d="M2.13675 14.9573C2.13675 7.87669 7.87669 2.13675 14.9573 2.13675H235.043C242.123 2.13675 247.863 7.87669 247.863 14.9573C247.863 22.0378 242.123 27.7778 235.043 27.7778H14.9573C7.87669 27.7778 2.13675 22.0378 2.13675 14.9573ZM14.1831 22.4307C15.0449 22.7868 16.0136 22.9649 17.0891 22.9649C17.894 22.9649 18.6347 22.8616 19.3113 22.655C19.9951 22.4556 20.5898 22.1636 21.0955 21.779C21.6083 21.3943 22.0036 20.9207 22.2814 20.358C22.5663 19.7953 22.7088 19.1579 22.7088 18.4456C22.7088 17.712 22.577 17.1066 22.3135 16.6294C22.0499 16.1522 21.7152 15.7676 21.3092 15.4755C20.9103 15.1764 20.4972 14.9485 20.0699 14.7918C19.6496 14.628 19.2828 14.5033 18.9694 14.4178L15.9566 13.5311C15.5578 13.4171 15.1447 13.2711 14.7173 13.0931C14.2971 12.915 13.941 12.6693 13.6489 12.3559C13.364 12.0425 13.2216 11.6258 13.2216 11.1059C13.2216 10.5931 13.3783 10.1372 13.6917 9.73836C14.0051 9.3395 14.4288 9.02611 14.963 8.79819C15.5043 8.56314 16.1204 8.44562 16.8113 8.44562C17.5236 8.45275 18.1753 8.59163 18.7665 8.86229C19.3647 9.12582 19.8562 9.50332 20.2408 9.99477C20.6254 10.4862 20.8712 11.0667 20.978 11.7362L22.6233 11.4371C22.4524 10.5183 22.1034 9.72411 21.5763 9.0546C21.0492 8.37796 20.3797 7.85802 19.5677 7.49477C18.7629 7.13152 17.8477 6.9499 16.822 6.9499C15.8106 6.94277 14.9096 7.11015 14.119 7.45203C13.3284 7.79391 12.7052 8.2818 12.2494 8.91571C11.7935 9.54961 11.5656 10.301 11.5656 11.17C11.5656 11.6828 11.6475 12.1386 11.8113 12.5375C11.9751 12.9364 12.2031 13.2854 12.4951 13.5845C12.7942 13.8765 13.1432 14.1294 13.5421 14.3431C13.941 14.5496 14.3754 14.7206 14.8455 14.8559L18.7451 16.0204C19.0086 16.0988 19.2793 16.202 19.5571 16.3302C19.8348 16.4513 20.0912 16.6045 20.3263 16.7896C20.5613 16.9748 20.7501 17.2099 20.8925 17.4948C21.035 17.7725 21.1062 18.1109 21.1062 18.5097C21.1062 19.1151 20.9353 19.6386 20.5934 20.0802C20.2515 20.5218 19.7814 20.8637 19.1831 21.1059C18.5848 21.3409 17.9082 21.4584 17.1532 21.4584C16.0065 21.4584 15.02 21.1771 14.1938 20.6144C13.3676 20.0446 12.8263 19.2611 12.5699 18.264L10.9673 18.5311C11.1383 19.4428 11.5015 20.2298 12.0571 20.8922C12.6197 21.5546 13.3284 22.0674 14.1831 22.4307ZM29.7966 22.9649C28.6712 22.9649 27.6955 22.7156 26.8693 22.217C26.0502 21.7184 25.4127 21.0168 24.9569 20.1123C24.501 19.2077 24.2731 18.1465 24.2731 16.9285C24.2731 15.6678 24.4975 14.5781 24.9462 13.6593C25.3949 12.7405 26.0252 12.0318 26.8372 11.5332C27.6563 11.0347 28.6214 10.7854 29.7325 10.7854C30.8721 10.7854 31.8443 11.0489 32.6492 11.576C33.454 12.0959 34.063 12.8438 34.4761 13.8196C34.8892 14.7953 35.0779 15.9599 35.0423 17.3131H34.1983H33.4398H25.9502C26.0106 18.5569 26.3348 19.5398 26.9227 20.2619C27.5851 21.0596 28.5217 21.4584 29.7325 21.4584C30.5587 21.4584 31.2781 21.2697 31.8906 20.8922C32.5103 20.5076 32.9982 19.9556 33.3543 19.2362L34.818 19.8025C34.3621 20.8067 33.6891 21.5866 32.7987 22.1422C31.9156 22.6906 30.9148 22.9649 29.7966 22.9649ZM40.5059 22.9649C39.637 22.9649 38.9069 22.8082 38.3157 22.4948C37.7317 22.1814 37.2937 21.7647 37.0016 21.2448C36.7096 20.7248 36.5636 20.1586 36.5636 19.5461C36.5636 18.9193 36.6882 18.3851 36.9375 17.9435C37.1939 17.4948 37.5394 17.128 37.9739 16.8431C38.4155 16.5582 38.9247 16.3409 39.5016 16.1913C40.0857 16.0489 40.7303 15.9243 41.4354 15.8174C42.1476 15.7035 42.8421 15.6073 43.5187 15.529C43.9691 15.4727 44.3824 15.4179 44.7586 15.3647C44.7436 14.3561 44.5226 13.5989 44.0956 13.0931C43.6327 12.5446 42.8278 12.2704 41.6811 12.2704C40.8905 12.2704 40.221 12.4485 39.6726 12.8046C39.1313 13.1607 38.7502 13.7234 38.5294 14.4926L37.0016 14.0439C37.2652 13.0111 37.7958 12.2099 38.5935 11.6401C39.3912 11.0703 40.4276 10.7854 41.7025 10.7854C42.7566 10.7854 43.6505 10.9848 44.3841 11.3837C45.1249 11.7754 45.6484 12.3452 45.9546 13.0931C46.0971 13.4278 46.1897 13.8017 46.2324 14.2149C46.2751 14.628 46.2965 15.0482 46.2965 15.4755V22.6443H44.8969V20.739C44.5307 21.3373 44.0571 21.8192 43.476 22.1849C42.6498 22.7049 41.6598 22.9649 40.5059 22.9649ZM49.0778 22.6443V11.1059H50.488V12.9276C50.5568 12.8074 50.6316 12.6917 50.7124 12.5802C50.919 12.2882 51.1433 12.0496 51.3855 11.8644C51.6846 11.6009 52.0336 11.4015 52.4325 11.2661C52.8314 11.1237 53.2338 11.0418 53.6398 11.0204C54.0457 10.9919 54.4161 11.0204 54.7509 11.1059V12.5802C54.3306 12.4734 53.8712 12.4485 53.3727 12.5055C52.8741 12.5624 52.4147 12.7619 51.9945 13.1037C51.6098 13.4029 51.3214 13.7626 51.1291 14.1828C50.9368 14.5959 50.8086 15.0375 50.7445 15.5076C50.6804 15.9706 50.6483 16.43 50.6483 16.8858V22.6443H49.0778ZM58.4065 22.1849C59.2114 22.7049 60.1943 22.9649 61.3553 22.9649C62.502 22.9649 63.4885 22.6978 64.3147 22.1636C65.1409 21.6223 65.7677 20.8388 66.195 19.8131L64.6138 19.3431C64.3289 20.0339 63.9087 20.561 63.3531 20.9243C62.8047 21.2804 62.1387 21.4584 61.3553 21.4584C60.116 21.4584 59.1829 21.0418 58.5561 20.2084C57.9293 19.368 57.6088 18.2569 57.5946 16.8751C57.6017 15.9777 57.7406 15.1835 58.0112 14.4926C58.2819 13.8017 58.695 13.264 59.2506 12.8794C59.8061 12.4876 60.5077 12.2918 61.3553 12.2918C62.1103 12.2918 62.7798 12.4841 63.3638 12.8687C63.955 13.2462 64.3859 13.7804 64.6566 14.4713L66.195 13.9798C65.8745 12.9898 65.2798 12.2099 64.4108 11.6401C63.549 11.0703 62.534 10.7854 61.366 10.7854C60.2192 10.7854 59.2434 11.0418 58.4386 11.5546C57.6338 12.0603 57.0177 12.7725 56.5903 13.6913C56.163 14.603 55.9422 15.6643 55.9279 16.8751C55.9422 18.0646 56.1558 19.1187 56.5689 20.0375C56.9892 20.9492 57.6017 21.665 58.4065 22.1849ZM76.7337 22.6443V16.7576C76.7337 16.1166 76.6732 15.529 76.5521 14.9948C76.431 14.4535 76.2351 13.9834 75.9645 13.5845C75.7009 13.1785 75.3555 12.8651 74.9282 12.6443C74.5079 12.4235 73.9951 12.3131 73.3897 12.3131C72.8341 12.3131 72.3427 12.4093 71.9153 12.6016C71.4951 12.7939 71.139 13.0717 70.8469 13.4349C70.562 13.7911 70.3448 14.2255 70.1952 14.7384C70.0457 15.2512 69.9709 15.8352 69.9709 16.4905V22.6443H68.3897V7.25973H69.8106V12.7086C70.1806 12.173 70.64 11.7492 71.1888 11.4371C71.9153 11.024 72.7487 10.8174 73.6888 10.8174C74.3797 10.8174 74.9816 10.9243 75.4944 11.1379C76.0143 11.3516 76.4524 11.6401 76.8085 12.0033C77.1717 12.3666 77.4638 12.7832 77.6846 13.2533C77.9054 13.7163 78.0656 14.2113 78.1653 14.7384C78.265 15.2583 78.3149 15.7782 78.3149 16.2982V22.6443H76.7337ZM240.565 7.91967C242.889 10.2027 242.922 13.9372 240.639 16.2609C238.567 18.3701 235.298 18.5919 232.975 16.9074L226.315 23.686L225.053 22.4459L231.713 15.6673C229.988 13.3739 230.152 10.1024 232.224 7.99326C234.507 5.66958 238.242 5.63664 240.565 7.91967Z" fill="white"/>
<path d="M40.6875 21.608C41.4211 21.608 42.0622 21.4762 42.6106 21.2127C43.159 20.9492 43.6006 20.5895 43.9354 20.1337C44.2702 19.6707 44.4874 19.1508 44.5871 18.5738C44.6726 18.2035 44.7189 17.7975 44.726 17.3559C44.7298 17.1183 44.7325 16.9127 44.7343 16.7391C44.3728 16.7844 43.9925 16.8298 43.5935 16.8751C42.9739 16.9463 42.3613 17.0282 41.7559 17.1208C41.1576 17.2134 40.6163 17.3238 40.132 17.452C39.8043 17.5446 39.4874 17.6764 39.1811 17.8473C38.8749 18.0111 38.622 18.2319 38.4226 18.5097C38.2303 18.7875 38.1341 19.1329 38.1341 19.5461C38.1341 19.8808 38.216 20.2049 38.3798 20.5183C38.5508 20.8317 38.8214 21.0916 39.1918 21.2982C39.5693 21.5047 40.0679 21.608 40.6875 21.608Z" fill="white"/>
<path d="M32.4675 13.3708C31.855 12.6087 30.9576 12.2277 29.7752 12.2277C28.5359 12.2277 27.5851 12.6301 26.9227 13.4349C26.4023 14.0741 26.0886 14.9288 25.9814 15.999H33.397C33.2875 14.8743 32.9777 13.9983 32.4675 13.3708Z" fill="white"/>
<path fill-rule="evenodd" clip-rule="evenodd" d="M235.043 0H14.9573C6.6966 0 0 6.6966 0 14.9573C0 23.2179 6.6966 29.9145 14.9573 29.9145H235.043C243.303 29.9145 250 23.2179 250 14.9573C250 6.6966 243.303 0 235.043 0ZM14.9573 2.13675C7.87669 2.13675 2.13675 7.87669 2.13675 14.9573C2.13675 22.0378 7.87669 27.7778 14.9573 27.7778H235.043C242.123 27.7778 247.863 22.0378 247.863 14.9573C247.863 7.87669 242.123 2.13675 235.043 2.13675H14.9573Z" fill="#1EFFBC"/>
<path d="M239.115 14.7634C237.659 16.2452 235.277 16.2663 233.795 14.8103C232.313 13.3543 232.292 10.9727 233.748 9.49078C235.204 8.00889 237.586 7.98788 239.068 9.44386C240.55 10.8998 240.571 13.2815 239.115 14.7634Z" fill="white"/>
<path fill-rule="evenodd" clip-rule="evenodd" d="M29.7966 22.9649C28.6712 22.9649 27.6955 22.7156 26.8693 22.217C26.0502 21.7184 25.4127 21.0168 24.9569 20.1123C24.501 19.2077 24.2731 18.1465 24.2731 16.9285C24.2731 15.6678 24.4975 14.5781 24.9462 13.6593C25.3949 12.7405 26.0252 12.0318 26.8372 11.5332C27.6563 11.0347 28.6214 10.7854 29.7325 10.7854C30.8721 10.7854 31.8443 11.0489 32.6492 11.576C33.454 12.0959 34.063 12.8438 34.4761 13.8196C34.8892 14.7953 35.0779 15.9599 35.0423 17.3131H34.1983H33.4398H25.9502C26.0106 18.5569 26.3348 19.5398 26.9227 20.2619C27.5851 21.0596 28.5217 21.4584 29.7325 21.4584C30.5587 21.4584 31.2781 21.2697 31.8906 20.8922C32.5103 20.5076 32.9982 19.9556 33.3543 19.2362L34.818 19.8025C34.3621 20.8067 33.6891 21.5866 32.7987 22.1422C31.9156 22.6906 30.9148 22.9649 29.7966 22.9649ZM29.7752 12.2277C30.9576 12.2277 31.855 12.6087 32.4675 13.3708C32.9777 13.9983 33.2875 14.8743 33.397 15.999H25.9814C26.0886 14.9288 26.4023 14.0741 26.9227 13.4349C27.5851 12.6301 28.5359 12.2277 29.7752 12.2277Z" fill="#1EFFBC"/>
<path fill-rule="evenodd" clip-rule="evenodd" d="M40.5059 22.9649C39.637 22.9649 38.9069 22.8082 38.3157 22.4948C37.7317 22.1814 37.2937 21.7647 37.0016 21.2448C36.7096 20.7248 36.5636 20.1586 36.5636 19.5461C36.5636 18.9193 36.6882 18.3851 36.9375 17.9435C37.1939 17.4948 37.5394 17.128 37.9739 16.8431C38.4155 16.5582 38.9247 16.3409 39.5016 16.1913C40.0857 16.0489 40.7303 15.9243 41.4354 15.8174C42.1476 15.7035 42.8421 15.6073 43.5187 15.529C43.9691 15.4727 44.3824 15.4179 44.7586 15.3647C44.7436 14.3561 44.5226 13.5989 44.0956 13.0931C43.6327 12.5446 42.8278 12.2704 41.6811 12.2704C40.8905 12.2704 40.221 12.4485 39.6726 12.8046C39.1313 13.1607 38.7502 13.7234 38.5294 14.4926L37.0016 14.0439C37.2652 13.0111 37.7958 12.2099 38.5935 11.6401C39.3912 11.0703 40.4276 10.7854 41.7025 10.7854C42.7566 10.7854 43.6505 10.9848 44.3841 11.3837C45.1249 11.7754 45.6484 12.3452 45.9546 13.0931C46.0971 13.4278 46.1897 13.8017 46.2324 14.2149C46.2751 14.628 46.2965 15.0482 46.2965 15.4755V22.6443H44.8969V20.739C44.5307 21.3373 44.0571 21.8192 43.476 22.1849C42.6498 22.7049 41.6598 22.9649 40.5059 22.9649ZM42.6106 21.2127C42.0622 21.4762 41.4211 21.608 40.6875 21.608C40.0679 21.608 39.5693 21.5047 39.1918 21.2982C38.8214 21.0916 38.5508 20.8317 38.3798 20.5183C38.216 20.2049 38.1341 19.8808 38.1341 19.5461C38.1341 19.1329 38.2303 18.7875 38.4226 18.5097C38.622 18.2319 38.8749 18.0111 39.1811 17.8473C39.4874 17.6764 39.8043 17.5446 40.132 17.452C40.6163 17.3238 41.1576 17.2134 41.7559 17.1208C42.3613 17.0282 42.9739 16.9463 43.5935 16.8751C43.9925 16.8298 44.3728 16.7844 44.7343 16.7391C44.7325 16.9127 44.7298 17.1183 44.726 17.3559C44.7189 17.7975 44.6726 18.2035 44.5871 18.5738C44.4874 19.1508 44.2702 19.6707 43.9354 20.1337C43.6006 20.5895 43.159 20.9492 42.6106 21.2127Z" fill="#1EFFBC"/>
<path d="M49.0778 22.6443V11.1059H50.488V12.9276C50.5568 12.8074 50.6316 12.6917 50.7124 12.5802C50.919 12.2882 51.1433 12.0496 51.3855 11.8644C51.6846 11.6009 52.0336 11.4015 52.4325 11.2661C52.8314 11.1237 53.2338 11.0418 53.6398 11.0204C54.0457 10.9919 54.4161 11.0204 54.7509 11.1059V12.5802C54.3306 12.4734 53.8712 12.4485 53.3727 12.5055C52.8741 12.5624 52.4147 12.7619 51.9945 13.1037C51.6098 13.4029 51.3214 13.7626 51.1291 14.1828C50.9368 14.5959 50.8086 15.0375 50.7445 15.5076C50.6804 15.9706 50.6483 16.43 50.6483 16.8858V22.6443H49.0778Z" fill="#1EFFBC"/>
<path d="M76.7337 22.6443V16.7576C76.7337 16.1166 76.6732 15.529 76.5521 14.9948C76.431 14.4535 76.2351 13.9834 75.9645 13.5845C75.7009 13.1785 75.3555 12.8651 74.9282 12.6443C74.5079 12.4235 73.9951 12.3131 73.3897 12.3131C72.8341 12.3131 72.3427 12.4093 71.9153 12.6016C71.4951 12.7939 71.139 13.0717 70.8469 13.4349C70.562 13.7911 70.3448 14.2255 70.1952 14.7384C70.0457 15.2512 69.9709 15.8352 69.9709 16.4905V22.6443H68.3897V7.25973H69.8106V12.7086C70.1806 12.173 70.64 11.7492 71.1888 11.4371C71.9153 11.024 72.7487 10.8174 73.6888 10.8174C74.3797 10.8174 74.9816 10.9243 75.4944 11.1379C76.0143 11.3516 76.4524 11.6401 76.8085 12.0033C77.1717 12.3666 77.4638 12.7832 77.6846 13.2533C77.9054 13.7163 78.0656 14.2113 78.1653 14.7384C78.265 15.2583 78.3149 15.7782 78.3149 16.2982V22.6443H76.7337Z" fill="#1EFFBC"/>
<path fill-rule="evenodd" clip-rule="evenodd" d="M240.565 7.91967C242.889 10.2027 242.922 13.9372 240.639 16.2609C238.567 18.3701 235.298 18.5919 232.975 16.9074L226.315 23.686L225.053 22.4459L231.713 15.6673C229.988 13.3739 230.152 10.1024 232.224 7.99326C234.507 5.66958 238.242 5.63664 240.565 7.91967ZM233.795 14.8103C235.277 16.2663 237.659 16.2452 239.115 14.7634C240.571 13.2815 240.55 10.8998 239.068 9.44386C237.586 7.98788 235.204 8.00889 233.748 9.49078C232.292 10.9727 232.313 13.3543 233.795 14.8103Z" fill="#1EFFBC"/>
</svg>
