<svg width="150" height="66" viewBox="0 0 150 66" fill="none" xmlns="http://www.w3.org/2000/svg">
<path d="M76.7978 52.6667H73.6012V48.9154C72.2993 48.7522 71.0889 48.4225 69.9698 47.9262C68.3172 47.1869 66.9472 46.1431 65.86 44.7949C64.7872 43.4467 64.0841 41.8521 63.7507 40.011L66.8603 39.4674C67.3387 41.4679 68.3679 43.0553 69.9481 44.2296C71.5427 45.3893 73.4635 45.9692 75.7105 45.9692C77.9865 45.9692 79.8276 45.4183 81.2338 44.3165C82.64 43.2003 83.3431 41.7434 83.3431 39.9458C83.3431 38.6121 82.9517 37.5466 82.1688 36.7492C81.386 35.9519 80.0596 35.2706 78.1895 34.7052L71.231 32.5307C67.027 31.2115 64.9249 28.718 64.9249 25.0503C64.9249 23.3397 65.3453 21.8393 66.1862 20.5491C67.0415 19.2444 68.223 18.2296 69.7306 17.5048C70.8769 16.9589 72.1672 16.6227 73.6012 16.4961V12.7426H76.7978V16.5421C78.0963 16.7009 79.2923 17.0435 80.3857 17.57C81.9659 18.3093 83.2633 19.3604 84.2781 20.7231C85.2929 22.0858 85.967 23.7021 86.3004 25.5722L83.1039 26.1811C82.9009 24.8474 82.4298 23.6804 81.6904 22.6801C80.9656 21.6798 80.0306 20.9043 78.8853 20.3534C77.7401 19.788 76.4644 19.4981 75.0582 19.4836C73.7245 19.4836 72.5357 19.7155 71.492 20.1794C70.4482 20.6433 69.6219 21.2884 69.013 22.1147C68.4187 22.9266 68.1215 23.8616 68.1215 24.9199C68.1215 26.0796 68.5346 27.0654 69.3609 27.8772C70.2018 28.6745 71.5282 29.3486 73.3403 29.8995L79.3202 31.7044C81.8427 32.4582 83.662 33.473 84.7783 34.7487C85.8945 36.0244 86.4526 37.7278 86.4526 39.8588C86.4526 41.6999 86.0032 43.309 85.1044 44.6862C84.2056 46.0634 82.9372 47.1362 81.299 47.9045C79.9841 48.515 78.4836 48.8783 76.7978 48.9944V52.6667Z" fill="#1EFFBC"/>
<path fill-rule="evenodd" clip-rule="evenodd" d="M19.5652 9.78261C19.5652 15.1854 15.1854 19.5652 9.78261 19.5652C7.7721 19.5652 5.90324 18.9587 4.34903 17.9187V47.2987C5.90324 46.2587 7.7721 45.6522 9.78261 45.6522C15.1854 45.6522 19.5652 50.032 19.5652 55.4348C19.5652 57.4453 18.9587 59.3141 17.9187 60.8684H132.081C131.041 59.3141 130.435 57.4453 130.435 55.4348C130.435 50.032 134.815 45.6522 140.217 45.6522C142.228 45.6522 144.097 46.2587 145.651 47.2987V17.9187C144.097 18.9587 142.228 19.5652 140.217 19.5652C134.815 19.5652 130.435 15.1854 130.435 9.78261C130.435 7.7721 131.041 5.90324 132.081 4.34903H17.9187C18.9587 5.90324 19.5652 7.7721 19.5652 9.78261ZM34.4566 40.7609C38.9589 40.7609 42.6088 37.111 42.6088 32.6087C42.6088 28.1064 38.9589 24.4565 34.4566 24.4565C29.9543 24.4565 26.3044 28.1064 26.3044 32.6087C26.3044 37.111 29.9543 40.7609 34.4566 40.7609ZM115.978 40.7609C120.481 40.7609 124.131 37.111 124.131 32.6087C124.131 28.1064 120.481 24.4565 115.978 24.4565C111.476 24.4565 107.826 28.1064 107.826 32.6087C107.826 37.111 111.476 40.7609 115.978 40.7609ZM75 57.0652C86.706 57.0652 96.1956 46.1157 96.1956 32.6087C96.1956 19.1017 86.706 8.15217 75 8.15217C63.294 8.15217 53.8043 19.1017 53.8043 32.6087C53.8043 46.1157 63.294 57.0652 75 57.0652Z" fill="#1EFFBC"/>
<path d="M42.6088 32.6087C42.6088 37.111 38.9589 40.7609 34.4566 40.7609C29.9543 40.7609 26.3044 37.111 26.3044 32.6087C26.3044 28.1064 29.9543 24.4565 34.4566 24.4565C38.9589 24.4565 42.6088 28.1064 42.6088 32.6087Z" fill="white"/>
<path d="M124.131 32.6087C124.131 37.111 120.481 40.7609 115.978 40.7609C111.476 40.7609 107.826 37.111 107.826 32.6087C107.826 28.1064 111.476 24.4565 115.978 24.4565C120.481 24.4565 124.131 28.1064 124.131 32.6087Z" fill="white"/>
<path fill-rule="evenodd" clip-rule="evenodd" d="M96.1956 32.6087C96.1956 46.1157 86.706 57.0652 75 57.0652C63.294 57.0652 53.8043 46.1157 53.8043 32.6087C53.8043 19.1017 63.294 8.15217 75 8.15217C86.706 8.15217 96.1956 19.1017 96.1956 32.6087ZM73.6012 52.6667H76.7978V48.9944C78.4836 48.8783 79.9841 48.515 81.299 47.9045C82.9372 47.1362 84.2056 46.0634 85.1044 44.6862C86.0032 43.309 86.4526 41.6999 86.4526 39.8588C86.4526 37.7278 85.8945 36.0244 84.7783 34.7487C83.662 33.473 81.8427 32.4582 79.3202 31.7044L73.3403 29.8995C71.5282 29.3486 70.2018 28.6745 69.3609 27.8772C68.5346 27.0654 68.1215 26.0796 68.1215 24.9199C68.1215 23.8616 68.4187 22.9266 69.013 22.1147C69.6219 21.2884 70.4482 20.6433 71.492 20.1794C72.5357 19.7155 73.7245 19.4836 75.0582 19.4836C76.4644 19.4981 77.7401 19.788 78.8853 20.3534C80.0306 20.9043 80.9656 21.6798 81.6904 22.6801C82.4298 23.6804 82.9009 24.8474 83.1039 26.1811L86.3004 25.5722C85.967 23.7021 85.2929 22.0858 84.2781 20.7231C83.2633 19.3604 81.9659 18.3093 80.3857 17.57C79.2923 17.0435 78.0963 16.7009 76.7978 16.5421V12.7426H73.6012V16.4961C72.1672 16.6227 70.8769 16.9589 69.7306 17.5048C68.223 18.2296 67.0415 19.2444 66.1862 20.5491C65.3453 21.8393 64.9249 23.3397 64.9249 25.0503C64.9249 28.718 67.027 31.2115 71.231 32.5307L78.1895 34.7052C80.0596 35.2706 81.386 35.9519 82.1688 36.7492C82.9517 37.5466 83.3431 38.6121 83.3431 39.9458C83.3431 41.7434 82.64 43.2003 81.2338 44.3165C79.8276 45.4183 77.9865 45.9692 75.7105 45.9692C73.4635 45.9692 71.5427 45.3893 69.9481 44.2296C68.3679 43.0553 67.3387 41.4679 66.8603 39.4674L63.7507 40.011C64.0841 41.8521 64.7872 43.4467 65.86 44.7949C66.9472 46.1431 68.3172 47.1869 69.9698 47.9262C71.0889 48.4225 72.2993 48.7522 73.6012 48.9154V52.6667Z" fill="white"/>
<path fill-rule="evenodd" clip-rule="evenodd" d="M0 0H9.78261H140.217H150V9.78261V55.4348V65.2174H140.217H9.78261H0V55.4348V9.78261V0ZM9.78261 19.5652C15.1854 19.5652 19.5652 15.1854 19.5652 9.78261C19.5652 7.7721 18.9587 5.90324 17.9187 4.34903H132.081C131.041 5.90324 130.435 7.7721 130.435 9.78261C130.435 15.1854 134.815 19.5652 140.217 19.5652C142.228 19.5652 144.097 18.9587 145.651 17.9187V47.2987C144.097 46.2587 142.228 45.6522 140.217 45.6522C134.815 45.6522 130.435 50.032 130.435 55.4348C130.435 57.4453 131.041 59.3141 132.081 60.8684H17.9187C18.9587 59.3141 19.5652 57.4453 19.5652 55.4348C19.5652 50.032 15.1854 45.6522 9.78261 45.6522C7.7721 45.6522 5.90324 46.2587 4.34903 47.2987V17.9187C5.90324 18.9587 7.7721 19.5652 9.78261 19.5652Z" fill="white"/>
</svg>
