<svg width="150" height="65" viewBox="0 0 150 65" fill="none" xmlns="http://www.w3.org/2000/svg">
<path fill-rule="evenodd" clip-rule="evenodd" d="M9.78261 19.5652C15.1854 19.5652 19.5652 15.1854 19.5652 9.78261C19.5652 7.7721 19.04 5.55422 18 4H132C130.96 5.55422 130.435 7.7721 130.435 9.78261C130.435 15.1854 134.815 19.5652 140.217 19.5652C142.228 19.5652 144.446 19.04 146 18V47C144.446 45.96 142.228 45.6522 140.217 45.6522C134.815 45.6522 130.435 50.032 130.435 55.4348C130.435 57.4453 130.96 59.4458 132 61H18C19.04 59.4458 19.5652 57.4453 19.5652 55.4348C19.5652 50.032 15.1854 45.6522 9.78261 45.6522C7.7721 45.6522 5.90324 46.2587 4.34903 47.2987V17.9187C5.90324 18.9587 7.7721 19.5652 9.78261 19.5652ZM96 33C96 46.507 86.706 57 75 57C63.294 57 54 46.507 54 33C54 19.493 63.294 8 75 8C86.706 8 96 19.493 96 33ZM124 33C124 39.4 118.667 41 116 41C109.6 41 108 35.6667 108 33C108 26.6 113.333 25 116 25C122.4 25 124 30.3333 124 33Z" fill="#1EFFBC"/>
<path fill-rule="evenodd" clip-rule="evenodd" d="M0 0H150V65H0V0ZM9.78261 19.5652C15.1854 19.5652 19.5652 15.1854 19.5652 9.78261C19.5652 7.7721 19.04 5.55422 18 4H132C130.96 5.55422 130.435 7.7721 130.435 9.78261C130.435 15.1854 134.815 19.5652 140.217 19.5652C142.228 19.5652 144.446 19.04 146 18V47C144.446 45.96 142.228 45.6522 140.217 45.6522C134.815 45.6522 130.435 50.032 130.435 55.4348C130.435 57.4453 130.96 59.4458 132 61H18C19.04 59.4458 19.5652 57.4453 19.5652 55.4348C19.5652 50.032 15.1854 45.6522 9.78261 45.6522C7.7721 45.6522 5.90324 46.2587 4.34903 47.2987V17.9187C5.90324 18.9587 7.7721 19.5652 9.78261 19.5652Z" fill="white"/>
<path d="M116 41C118.667 41 124 39.4 124 33C124 30.3333 122.4 25 116 25C113.333 25 108 26.6 108 33C108 35.6667 109.6 41 116 41Z" fill="white"/>
<path fill-rule="evenodd" clip-rule="evenodd" d="M9.78261 19.5652C15.1854 19.5652 19.5652 15.1854 19.5652 9.78261C19.5652 7.7721 19.04 5.55422 18 4H132C130.96 5.55422 130.435 7.7721 130.435 9.78261C130.435 15.1854 134.815 19.5652 140.217 19.5652C142.228 19.5652 144.446 19.04 146 18V47C144.446 45.96 142.228 45.6522 140.217 45.6522C134.815 45.6522 130.435 50.032 130.435 55.4348C130.435 57.4453 130.96 59.4458 132 61H18C19.04 59.4458 19.5652 57.4453 19.5652 55.4348C19.5652 50.032 15.1854 45.6522 9.78261 45.6522C7.7721 45.6522 5.90324 46.2587 4.34903 47.2987V17.9187C5.90324 18.9587 7.7721 19.5652 9.78261 19.5652ZM124 33C124 39.4 118.667 41 116 41C109.6 41 108 35.6667 108 33C108 26.6 113.333 25 116 25C122.4 25 124 30.3333 124 33ZM96 33C96 46.507 86.706 57 75 57C63.294 57 54 46.507 54 33C54 19.493 63.294 8 75 8C86.706 8 96 19.493 96 33Z" fill="#1EFFBC"/>
<path fill-rule="evenodd" clip-rule="evenodd" d="M96 33C96 46.507 86.706 57 75 57C63.294 57 54 46.507 54 33C54 19.493 63.294 8 75 8C86.706 8 96 19.493 96 33Z" fill="white"/>
<path d="M34 41.0111C36.6667 41.0111 42 39.4111 42 33.0111C42 30.3445 40.4 25.0111 34 25.0111C31.3333 25.0111 26 26.6111 26 33.0111C26 35.6778 27.6 41.0111 34 41.0111Z" fill="white"/>
<path d="M72.9505 53.4325V48.3025H76.258V53.4325H72.9505ZM72.9505 17.275V12.1225H76.258V17.275H72.9505ZM74.998 49.675C72.853 49.675 70.918 49.2925 69.193 48.5275C67.483 47.7625 66.0655 46.6825 64.9405 45.2875C63.8305 43.8925 63.103 42.2425 62.758 40.3375L65.9755 39.775C66.4705 41.845 67.5355 43.4875 69.1705 44.7025C70.8205 45.9025 72.808 46.5025 75.133 46.5025C77.488 46.5025 79.393 45.9325 80.848 44.7925C82.303 43.6375 83.0305 42.13 83.0305 40.27C83.0305 38.89 82.6255 37.7875 81.8155 36.9625C81.0055 36.1375 79.633 35.4325 77.698 34.8475L70.498 32.5975C66.148 31.2325 63.973 28.6525 63.973 24.8575C63.973 23.0875 64.408 21.535 65.278 20.2C66.163 18.85 67.3855 17.8 68.9455 17.05C70.5205 16.3 72.358 15.9325 74.458 15.9475C76.513 15.9475 78.3505 16.3375 79.9705 17.1175C81.6055 17.8825 82.948 18.97 83.998 20.38C85.048 21.79 85.7455 23.4625 86.0905 25.3975L82.783 26.0275C82.573 24.6475 82.0855 23.44 81.3205 22.405C80.5705 21.37 79.603 20.5675 78.418 19.9975C77.233 19.4125 75.913 19.1125 74.458 19.0975C73.078 19.0975 71.848 19.3375 70.768 19.8175C69.688 20.2975 68.833 20.965 68.203 21.82C67.588 22.66 67.2805 23.6275 67.2805 24.7225C67.2805 25.9225 67.708 26.9425 68.563 27.7825C69.433 28.6075 70.8055 29.305 72.6805 29.875L78.868 31.7425C81.478 32.5225 83.3605 33.5725 84.5155 34.8925C85.6705 36.2125 86.248 37.975 86.248 40.18C86.248 42.085 85.783 43.75 84.853 45.175C83.923 46.6 82.6105 47.71 80.9155 48.505C79.2355 49.285 77.263 49.675 74.998 49.675Z" fill="#1EFFBC"/>
</svg>
