<svg width="100" height="38" viewBox="0 0 100 38" fill="none" xmlns="http://www.w3.org/2000/svg">
<path fill-rule="evenodd" clip-rule="evenodd" d="M93.5985 3.78312C88.844 1.40563 83.2475 1.40563 78.493 3.78312C77.999 4.03013 77.3983 3.82993 77.1513 3.33596C76.9043 2.84199 77.1045 2.24131 77.5985 1.9943C82.9161 -0.664766 89.1754 -0.664766 94.493 1.9943C94.987 2.24131 95.1872 2.84199 94.9402 3.33596C94.6931 3.82993 94.0925 4.03013 93.5985 3.78312Z" fill="white"/>
<path fill-rule="evenodd" clip-rule="evenodd" d="M91.492 7.5345C88.1926 5.3404 83.8989 5.3404 80.5995 7.5345C80.1396 7.84033 79.5189 7.71544 79.2131 7.25556C78.9072 6.79568 79.0321 6.17495 79.492 5.86913C83.4623 3.22886 88.6292 3.22886 92.5995 5.86913C93.0594 6.17495 93.1843 6.79568 92.8784 7.25556C92.5726 7.71544 91.9519 7.84033 91.492 7.5345Z" fill="white"/>
<path fill-rule="evenodd" clip-rule="evenodd" d="M89.339 11.065C87.5196 9.24756 84.5719 9.24756 82.7525 11.065C82.3617 11.4553 81.7286 11.455 81.3383 11.0643C80.9479 10.6735 80.9483 10.0404 81.339 9.65006C83.9393 7.05254 88.1522 7.05254 90.7525 9.65006C91.1432 10.0404 91.1435 10.6735 90.7532 11.0643C90.3629 11.455 89.7297 11.4553 89.339 11.065Z" fill="white"/>
<path d="M88.0457 13.3575C88.0457 14.4621 87.1503 15.3575 86.0457 15.3575C84.9412 15.3575 84.0457 14.4621 84.0457 13.3575C84.0457 12.253 84.9412 11.3575 86.0457 11.3575C87.1503 11.3575 88.0457 12.253 88.0457 13.3575Z" fill="white"/>
<path fill-rule="evenodd" clip-rule="evenodd" d="M100 17.3575V27.3575V37.3575H50H0V27.3575V17.3575H50H100ZM94 24.8575C92 24.8575 91.5 26.5242 91.5 27.3575C91.5 29.3575 93.1667 29.8575 94 29.8575C96 29.8575 96.5 28.1909 96.5 27.3575C96.5 25.3013 94.8333 24.8341 94 24.8575ZM87.25 27.3574C87.25 26.3574 86.4167 26.1074 86 26.1074C85.5833 26.1074 84.75 26.3574 84.75 27.3574C84.75 27.7741 85 28.6074 86 28.6074C86.4167 28.6074 87.25 28.3574 87.25 27.3574Z" fill="black"/>
<path d="M91.5 27.3575C91.5 26.5242 92 24.8575 94 24.8575C94.8333 24.8341 96.5 25.3013 96.5 27.3575C96.5 28.1909 96 29.8575 94 29.8575C93.1667 29.8575 91.5 29.3575 91.5 27.3575Z" fill="white"/>
<path d="M86 26.1074C86.4167 26.1074 87.25 26.3574 87.25 27.3574C87.25 28.3574 86.4167 28.6074 86 28.6074C85 28.6074 84.75 27.7741 84.75 27.3574C84.75 26.3574 85.5833 26.1074 86 26.1074Z" fill="white"/>
</svg>
