<svg width="201" height="201" viewBox="0 0 201 201" fill="none" xmlns="http://www.w3.org/2000/svg">
<path d="M200.276 100.4C200.276 155.628 155.504 200.4 100.276 200.4C45.0471 200.4 0.275574 155.628 0.275574 100.4C0.275574 45.1715 45.0471 0.400002 100.276 0.400002C155.504 0.400002 200.276 45.1715 200.276 100.4Z" fill="white"/>
<path d="M90.0001 79.4H108V88.4L104.25 91.4L99.0001 95.9L93.7501 91.4L90.0001 88.4V79.4Z" fill="#EEE7A5"/>
<path d="M103.5 47.9V46.4H112.5L117 47.9V49.4L112.5 47.9H103.5Z" fill="#BFC070"/>
<path d="M94.5001 47.9H85.5001L81.0001 49.4V47.9L85.5001 46.4H94.5001V47.9Z" fill="#BFC070"/>
<path d="M94.5001 73.4H103.5C105 73.4 108 69.8 108 67.4H90.0001C90.0001 69.8 93.0001 73.4 94.5001 73.4Z" fill="#FF7C7C"/>
<path d="M108 52.4C109.5 52.4 112.5 53.3 112.5 56.9H114C114 54.9 112.8 50.9 108 50.9C103.2 50.9 102 54.9 102 56.9H103.5C103.5 55.4 104.4 52.4 108 52.4Z" fill="black"/>
<path fill-rule="evenodd" clip-rule="evenodd" d="M90.0001 79.4H108L113.25 77.15C117.45 73.55 120 70.15 120 68.9V55.025V59.9H118.5V41.9L117.343 40.4L116.186 38.9C113.388 42.4398 104.06 43.4 99.0001 43.4C93.94 43.4 84.6125 42.4398 81.8143 38.9L80.6572 40.4L79.5001 41.9V59.9H78.0001V55.025V68.9C78.0001 70.15 80.5501 73.55 84.7501 77.15L90.0001 79.4ZM103.5 73.4H94.5001C93.0001 73.4 90.0001 69.8 90.0001 67.4H108C108 69.8 105 73.4 103.5 73.4ZM112.5 56.9C112.5 53.3 109.5 52.4 108 52.4C104.4 52.4 103.5 55.4 103.5 56.9H102C102 54.9 103.2 50.9 108 50.9C112.8 50.9 114 54.9 114 56.9H112.5ZM94.5001 56.9C94.5001 53.3 91.5001 52.4 90.0001 52.4C86.4001 52.4 85.5001 55.4 85.5001 56.9H84.0001C84.0001 54.9 85.2001 50.9 90.0001 50.9C94.8001 50.9 96.0001 54.9 96.0001 56.9H94.5001ZM85.5001 47.9H94.5001V46.4H85.5001L81.0001 47.9V49.4L85.5001 47.9ZM103.5 46.4V47.9H112.5L117 49.4V47.9L112.5 46.4H103.5Z" fill="#FFF9C2"/>
<path fill-rule="evenodd" clip-rule="evenodd" d="M94.5001 47.9H85.5001L81.0001 49.4V47.9L85.5001 46.4H94.5001V47.9ZM103.5 47.9V46.4H112.5L117 47.9V49.4L112.5 47.9H103.5Z" fill="#BFC070"/>
<path d="M90.0001 52.4C91.5001 52.4 94.5001 53.3 94.5001 56.9H96.0001C96.0001 54.9 94.8001 50.9 90.0001 50.9C85.2001 50.9 84.0001 54.9 84.0001 56.9H85.5001C85.5001 55.4 86.4001 52.4 90.0001 52.4Z" fill="black"/>
<path fill-rule="evenodd" clip-rule="evenodd" d="M45.0001 172.4C40.2001 172.4 39.0001 168.4 39.0001 166.4C39.0001 161.6 43.0001 160.4 45.0001 160.4H153C155 160.4 159 161.6 159 166.4C159 168.4 157.8 172.4 153 172.4H45.0001Z" fill="#1EFFBC"/>
<path fill-rule="evenodd" clip-rule="evenodd" d="M153 100.4H137H61.0001H45.0001C43.0001 100.4 39.0001 101.6 39.0001 106.4V154.4C39.0001 159.2 43.0001 160.4 45.0001 160.4H153C155 160.4 159 159.2 159 154.4V106.4C159 101.6 155 100.4 153 100.4Z" fill="#5C6F68"/>
<path d="M99.0001 95.9L93.7501 91.4L90.0001 88.4L66.0001 92.2209C62.0001 92.8577 61.0001 95.939 61.0001 97.4V100.4H137V97.4C137 96.3403 136 94.0209 132 93.2209L108 88.4L104.25 91.4L99.0001 95.9Z" fill="#1EFFBC"/>
<path d="M102.643 129.171L101.402 124.459L99.0554 114.437L98.9983 114.2L98.9412 114.437L96.5946 124.459L95.3539 129.171H102.643Z" fill="white"/>
<path d="M98.9985 146.926L93.2846 137.029L94.5068 132.387H103.49L104.712 137.029L98.9985 146.926Z" fill="white"/>
<path d="M91.3921 133.751L96.7174 114.2H93.2172L89.1799 129.919L91.3921 133.751Z" fill="white"/>
<path d="M101.28 114.2L106.605 133.751L108.818 129.917L104.781 114.2H101.28Z" fill="white"/>
<path fill-rule="evenodd" clip-rule="evenodd" d="M83.9075 130.798L91.664 145.612L95.9684 146.924L86.6585 129.91L90.9375 114.2H87.4373L83.4001 129.919L83.9075 130.798Z" fill="white"/>
<path d="M110.563 114.2H107.063L111.341 129.907L102.03 146.924L106.334 145.612L114.092 130.799L114.6 129.919L110.563 114.2Z" fill="white"/>
<path d="M81.8143 38.9C84.6125 42.4398 93.94 43.4 99.0001 43.4C104.06 43.4 113.388 42.4398 116.186 38.9L117.343 40.4L118.5 41.9V59.9H120L121.5 56.9L123 50.9V34.4C123 31.4 118.2 25.4 99.0001 25.4C79.8001 25.4 75.0001 31.4 75.0001 34.4V50.9L76.5001 56.9L78.0001 59.9H79.5001V41.9L80.6572 40.4L81.8143 38.9Z" fill="#BFC070"/>
</svg>
