<svg width="268" height="90" viewBox="0 0 268 90" fill="none" xmlns="http://www.w3.org/2000/svg">
<rect x="0.5" y="0.5" width="37" height="68.9997" rx="4.5" fill="white" stroke="#5C6F68"/>
<rect x="11.4" y="65.7939" width="15.2" height="1.02439" rx="0.512193" fill="black"/>
<rect x="13" width="12" height="3" rx="1" fill="#5C6F68"/>
<path d="M21.3282 23.1123L18.2833 37.4423L12.308 34.656L21.3282 23.1123Z" fill="#5C6F68"/>
<path d="M16.2761 46.8525L19.321 32.5226L25.2963 35.3089L16.2761 46.8525Z" fill="#5C6F68"/>
<path d="M10.1599 46.8887C9.23936 46.8887 8.50796 46.6211 7.96565 46.0859C7.43048 45.5507 7.16289 44.8193 7.16289 43.8917V37.4589C7.16289 37.302 7.12008 37.1664 7.03445 37.0522L6.08184 35.7036C5.94627 35.4966 5.87848 35.2683 5.87848 35.0186C5.87848 34.7688 5.94627 34.5405 6.08184 34.3335L7.03445 32.9849C7.12008 32.8422 7.16289 32.7066 7.16289 32.5782V26.1454C7.16289 25.2249 7.43048 24.4971 7.96565 23.9619C8.50796 23.4196 9.23936 23.1484 10.1599 23.1484H11.6155V25.5781H10.3418C10.1349 25.5781 9.95649 25.653 9.80664 25.8029C9.66393 25.9456 9.59257 26.1204 9.59257 26.3274V32.5782C9.59257 33.2418 9.39991 33.8483 9.01459 34.3978L8.55434 35.0186L9.01459 35.6394C9.39991 36.1959 9.59257 36.8025 9.59257 37.4589V43.7205C9.59257 43.9274 9.66393 44.1022 9.80664 44.2449C9.95649 44.3948 10.1349 44.4697 10.3418 44.4697H11.6155V46.8887H10.1599Z" fill="#5C6F68"/>
<path d="M27.8401 46.8877C28.7606 46.8877 29.492 46.6201 30.0343 46.0849C30.5695 45.5498 30.8371 44.8184 30.8371 43.8907V37.458C30.8371 37.301 30.8799 37.1654 30.9655 37.0512L31.9181 35.7026C32.0537 35.4957 32.1215 35.2673 32.1215 35.0176C32.1215 34.7678 32.0537 34.5395 31.9181 34.3326L30.9655 32.9839C30.8799 32.8412 30.8371 32.7056 30.8371 32.5772V26.1444C30.8371 25.2239 30.5695 24.4961 30.0343 23.9609C29.492 23.4186 28.7606 23.1475 27.8401 23.1475H26.3844V25.5771H27.6582C27.8651 25.5771 28.0435 25.6521 28.1933 25.8019C28.336 25.9446 28.4074 26.1195 28.4074 26.3264V32.5772C28.4074 33.2408 28.6001 33.8473 28.9854 34.3968L29.4456 35.0176L28.9854 35.6384C28.6001 36.195 28.4074 36.8015 28.4074 37.458V43.7195C28.4074 43.9264 28.336 44.1012 28.1933 44.2439C28.0435 44.3938 27.8651 44.4687 27.6582 44.4687H26.3844V46.8877H27.8401Z" fill="#5C6F68"/>
<rect x="59" y="1" width="128" height="78" rx="4" fill="white" stroke="#5C6F68" stroke-width="2"/>
<circle cx="123" cy="1.97266" r="1.5" fill="black"/>
<path d="M48 81.7402H198V81.7402C198 86.1585 194.418 89.7402 190 89.7402H56C51.5817 89.7402 48 86.1585 48 81.7402V81.7402Z" fill="#5C6F68"/>
<path d="M108 81.7402H138L137.782 82.6885C137.573 83.5967 136.765 84.2402 135.833 84.2402H110.169C109.238 84.2402 108.43 83.5982 108.22 82.6914L108 81.7402Z" fill="white"/>
<path d="M127.997 14.4844L121.462 45.241L108.637 39.2607L127.997 14.4844Z" fill="#5C6F68"/>
<path d="M117.154 65.4384L123.689 34.6818L136.514 40.6621L117.154 65.4384Z" fill="#5C6F68"/>
<path d="M104.026 65.5155C102.051 65.5155 100.481 64.9412 99.3168 63.7925C98.1682 62.6439 97.5939 61.0741 97.5939 59.0831V45.2763C97.5939 44.9394 97.502 44.6484 97.3182 44.4034L95.2736 41.5088C94.9826 41.0646 94.8371 40.5746 94.8371 40.0385C94.8371 39.5025 94.9826 39.0124 95.2736 38.5682L97.3182 35.6737C97.502 35.3674 97.5939 35.0764 97.5939 34.8007V20.9939C97.5939 19.0183 98.1682 17.4561 99.3168 16.3075C100.481 15.1435 102.051 14.5615 104.026 14.5615H107.151V19.7764H104.417C103.973 19.7764 103.59 19.9372 103.268 20.2588C102.962 20.5651 102.809 20.9403 102.809 21.3845V34.8007C102.809 36.225 102.395 37.5268 101.568 38.7061L100.58 40.0385L101.568 41.3709C102.395 42.5655 102.809 43.8673 102.809 45.2763V58.7155C102.809 59.1597 102.962 59.5349 103.268 59.8412C103.59 60.1628 103.973 60.3236 104.417 60.3236H107.151V65.5155H104.026Z" fill="#5C6F68"/>
<path d="M141.974 65.5145C143.949 65.5145 145.519 64.9402 146.683 63.7916C147.832 62.6429 148.406 61.0731 148.406 59.0821V45.2754C148.406 44.9384 148.498 44.6474 148.682 44.4024L150.726 41.5078C151.017 41.0637 151.163 40.5736 151.163 40.0375C151.163 39.5015 151.017 39.0114 150.726 38.5673L148.682 35.6727C148.498 35.3664 148.406 35.0754 148.406 34.7997V20.993C148.406 19.0173 147.832 17.4551 146.683 16.3065C145.519 15.1425 143.949 14.5605 141.974 14.5605H138.849V19.7754H141.583C142.027 19.7754 142.41 19.9362 142.732 20.2578C143.038 20.5641 143.191 20.9394 143.191 21.3835V34.7997C143.191 36.224 143.605 37.5258 144.432 38.7051L145.42 40.0375L144.432 41.37C143.605 42.5646 143.191 43.8664 143.191 45.2754V58.7145C143.191 59.1587 143.038 59.5339 142.732 59.8402C142.41 60.1618 142.027 60.3227 141.583 60.3227H138.849V65.5145H141.974Z" fill="#5C6F68"/>
<rect x="208.5" y="0.5" width="59" height="78.4279" rx="4.5" fill="white" stroke="#5C6F68"/>
<rect x="226" y="74.6553" width="24" height="1.02236" rx="0.511179" fill="black"/>
<rect x="228" width="20" height="3" rx="1" fill="#5C6F68"/>
<path d="M241.234 24.3428L237.005 44.247L228.705 40.3769L241.234 24.3428Z" fill="#5C6F68"/>
<path d="M234.217 57.3179L238.446 37.4136L246.745 41.2838L234.217 57.3179Z" fill="#5C6F68"/>
<path d="M225.721 57.3677C224.443 57.3677 223.427 56.996 222.673 56.2526C221.93 55.5093 221.558 54.4934 221.558 53.2049V44.2698C221.558 44.0518 221.499 43.8634 221.38 43.7049L220.057 41.8316C219.868 41.5442 219.774 41.227 219.774 40.8801C219.774 40.5332 219.868 40.2161 220.057 39.9286L221.38 38.0554C221.499 37.8572 221.558 37.6688 221.558 37.4904V28.5553C221.558 27.2768 221.93 26.2658 222.673 25.5225C223.427 24.7692 224.443 24.3926 225.721 24.3926H227.743V27.7674H225.974C225.686 27.7674 225.439 27.8715 225.23 28.0796C225.032 28.2778 224.933 28.5207 224.933 28.8081V37.4904C224.933 38.4122 224.666 39.2547 224.13 40.0178L223.491 40.8801L224.13 41.7424C224.666 42.5155 224.933 43.358 224.933 44.2698V52.967C224.933 53.2545 225.032 53.4973 225.23 53.6955C225.439 53.9036 225.686 54.0077 225.974 54.0077H227.743V57.3677H225.721Z" fill="#5C6F68"/>
<path d="M250.279 57.3667C251.557 57.3667 252.573 56.995 253.327 56.2517C254.07 55.5083 254.442 54.4924 254.442 53.2039V44.2688C254.442 44.0508 254.501 43.8625 254.62 43.7039L255.943 41.8306C256.132 41.5432 256.226 41.226 256.226 40.8791C256.226 40.5322 256.132 40.2151 255.943 39.9277L254.62 38.0544C254.501 37.8562 254.442 37.6679 254.442 37.4895V28.5544C254.442 27.2758 254.07 26.2648 253.327 25.5215C252.573 24.7682 251.557 24.3916 250.279 24.3916H248.257V27.7664H250.026C250.314 27.7664 250.561 27.8705 250.769 28.0786C250.968 28.2769 251.067 28.5197 251.067 28.8071V37.4895C251.067 38.4112 251.334 39.2537 251.87 40.0169L252.509 40.8791L251.87 41.7414C251.334 42.5145 251.067 43.357 251.067 44.2688V52.966C251.067 53.2535 250.968 53.4963 250.769 53.6945C250.561 53.9027 250.314 54.0067 250.026 54.0067H248.257V57.3667H250.279Z" fill="#5C6F68"/>
</svg>
