<svg width="268" height="90" viewBox="0 0 268 90" fill="none" xmlns="http://www.w3.org/2000/svg">
<rect x="0.5" y="0.500244" width="37" height="68.9997" rx="4.5" fill="#1EFFBC" stroke="black"/>
<rect x="11.4" y="65.7937" width="15.2" height="1.02439" rx="0.512193" fill="white"/>
<rect x="13" width="12" height="3" rx="1" fill="black"/>
<path d="M21.3282 23.1122L18.2833 37.4421L12.308 34.6558L21.3282 23.1122Z" fill="black"/>
<path d="M16.2761 46.8524L19.321 32.5225L25.2963 35.3088L16.2761 46.8524Z" fill="black"/>
<path d="M10.1599 46.8883C9.23936 46.8883 8.50796 46.6207 7.96565 46.0856C7.43048 45.5504 7.16289 44.819 7.16289 43.8913V37.4586C7.16289 37.3016 7.12008 37.166 7.03445 37.0518L6.08184 35.7032C5.94627 35.4963 5.87848 35.2679 5.87848 35.0182C5.87848 34.7684 5.94627 34.5401 6.08184 34.3332L7.03445 32.9845C7.12008 32.8418 7.16289 32.7062 7.16289 32.5778V26.145C7.16289 25.2245 7.43048 24.4967 7.96565 23.9615C8.50796 23.4192 9.23936 23.1481 10.1599 23.1481H11.6155V25.5778H10.3418C10.1349 25.5778 9.95649 25.6527 9.80664 25.8025C9.66393 25.9452 9.59257 26.1201 9.59257 26.327V32.5778C9.59257 33.2414 9.39991 33.8479 9.01459 34.3974L8.55434 35.0182L9.01459 35.639C9.39991 36.1956 9.59257 36.8021 9.59257 37.4586V43.7201C9.59257 43.927 9.66393 44.1018 9.80664 44.2446C9.95649 44.3944 10.1349 44.4693 10.3418 44.4693H11.6155V46.8883H10.1599Z" fill="black"/>
<path d="M27.8401 46.8877C28.7606 46.8877 29.492 46.6201 30.0343 46.0849C30.5695 45.5498 30.8371 44.8184 30.8371 43.8907V37.458C30.8371 37.301 30.8799 37.1654 30.9655 37.0512L31.9181 35.7026C32.0537 35.4957 32.1215 35.2673 32.1215 35.0176C32.1215 34.7678 32.0537 34.5395 31.9181 34.3326L30.9655 32.9839C30.8799 32.8412 30.8371 32.7056 30.8371 32.5772V26.1444C30.8371 25.2239 30.5695 24.4961 30.0343 23.9609C29.492 23.4186 28.7606 23.1475 27.8401 23.1475H26.3844V25.5771H27.6582C27.8651 25.5771 28.0435 25.6521 28.1933 25.8019C28.336 25.9446 28.4074 26.1195 28.4074 26.3264V32.5772C28.4074 33.2408 28.6001 33.8473 28.9854 34.3968L29.4456 35.0176L28.9854 35.6384C28.6001 36.195 28.4074 36.8015 28.4074 37.458V43.7195C28.4074 43.9264 28.336 44.1012 28.1933 44.2439C28.0435 44.3938 27.8651 44.4687 27.6582 44.4687H26.3844V46.8877H27.8401Z" fill="black"/>
<rect x="59" y="1" width="128" height="78" rx="4" fill="#1EFFBC" stroke="black" stroke-width="2"/>
<circle cx="123" cy="1.97314" r="1.5" fill="white"/>
<path d="M48 81.7405H198V81.7405C198 86.1588 194.418 89.7405 190 89.7405H56C51.5817 89.7405 48 86.1588 48 81.7405V81.7405Z" fill="black"/>
<path d="M108 81.7405H138L137.782 82.6887C137.573 83.5969 136.765 84.2405 135.833 84.2405H110.169C109.238 84.2405 108.43 83.5984 108.22 82.6916L108 81.7405Z" fill="#1EFFBC"/>
<path d="M127.997 14.4849L121.462 45.2415L108.637 39.2612L127.997 14.4849Z" fill="black"/>
<path d="M117.154 65.4389L123.689 34.6823L136.514 40.6625L117.154 65.4389Z" fill="black"/>
<path d="M104.026 65.5151C102.051 65.5151 100.481 64.9408 99.3168 63.7922C98.1682 62.6435 97.5939 61.0737 97.5939 59.0827V45.276C97.5939 44.939 97.502 44.6481 97.3182 44.403L95.2736 41.5084C94.9826 41.0643 94.8371 40.5742 94.8371 40.0382C94.8371 39.5021 94.9826 39.012 95.2736 38.5679L97.3182 35.6733C97.502 35.367 97.5939 35.076 97.5939 34.8003V20.9936C97.5939 19.0179 98.1682 17.4557 99.3168 16.3071C100.481 15.1431 102.051 14.5612 104.026 14.5612H107.151V19.776H104.417C103.973 19.776 103.59 19.9368 103.268 20.2584C102.962 20.5648 102.809 20.94 102.809 21.3841V34.8003C102.809 36.2246 102.395 37.5264 101.568 38.7057L100.58 40.0382L101.568 41.3706C102.395 42.5652 102.809 43.867 102.809 45.276V58.7152C102.809 59.1593 102.962 59.5345 103.268 59.8408C103.59 60.1625 103.973 60.3233 104.417 60.3233H107.151V65.5151H104.026Z" fill="black"/>
<path d="M141.974 65.5148C143.949 65.5148 145.519 64.9405 146.683 63.7918C147.832 62.6432 148.406 61.0733 148.406 59.0824V45.2756C148.406 44.9387 148.498 44.6477 148.682 44.4026L150.726 41.5081C151.017 41.0639 151.163 40.5738 151.163 40.0378C151.163 39.5018 151.017 39.0117 150.726 38.5675L148.682 35.6729C148.498 35.3666 148.406 35.0756 148.406 34.8V20.9932C148.406 19.0175 147.832 17.4554 146.683 16.3067C145.519 15.1428 143.949 14.5608 141.974 14.5608H138.849V19.7756H141.583C142.027 19.7756 142.41 19.9365 142.732 20.2581C143.038 20.5644 143.191 20.9396 143.191 21.3838V34.8C143.191 36.2243 143.605 37.5261 144.432 38.7054L145.42 40.0378L144.432 41.3702C143.605 42.5648 143.191 43.8666 143.191 45.2756V58.7148C143.191 59.1589 143.038 59.5342 142.732 59.8405C142.41 60.1621 142.027 60.3229 141.583 60.3229H138.849V65.5148H141.974Z" fill="black"/>
<rect x="208.5" y="0.500244" width="59" height="78.4279" rx="4.5" fill="#1EFFBC" stroke="black"/>
<rect x="226" y="74.6554" width="24" height="1.02236" rx="0.511179" fill="white"/>
<rect x="228" width="20" height="3" rx="1" fill="black"/>
<path d="M241.234 24.3429L237.005 44.2472L228.705 40.377L241.234 24.3429Z" fill="black"/>
<path d="M234.216 57.318L238.446 37.4137L246.745 41.2839L234.216 57.318Z" fill="black"/>
<path d="M225.721 57.3679C224.443 57.3679 223.427 56.9962 222.673 56.2529C221.93 55.5095 221.558 54.4936 221.558 53.2051V44.2701C221.558 44.052 221.499 43.8637 221.38 43.7051L220.057 41.8319C219.868 41.5444 219.774 41.2273 219.774 40.8804C219.774 40.5335 219.868 40.2163 220.057 39.9289L221.38 38.0556C221.499 37.8574 221.558 37.6691 221.558 37.4907V28.5556C221.558 27.277 221.93 26.2661 222.673 25.5227C223.427 24.7695 224.443 24.3928 225.721 24.3928H227.743V27.7676H225.974C225.686 27.7676 225.439 27.8717 225.23 28.0798C225.032 28.2781 224.933 28.5209 224.933 28.8083V37.4907C224.933 38.4124 224.666 39.2549 224.13 40.0181L223.491 40.8804L224.13 41.7427C224.666 42.5157 224.933 43.3582 224.933 44.2701V52.9673C224.933 53.2547 225.032 53.4975 225.23 53.6958C225.439 53.9039 225.686 54.008 225.974 54.008H227.743V57.3679H225.721Z" fill="black"/>
<path d="M250.279 57.3671C251.557 57.3671 252.573 56.9954 253.327 56.252C254.07 55.5087 254.442 54.4928 254.442 53.2043V44.2692C254.442 44.0511 254.501 43.8628 254.62 43.7042L255.943 41.831C256.132 41.5436 256.226 41.2264 256.226 40.8795C256.226 40.5326 256.132 40.2155 255.943 39.928L254.62 38.0548C254.501 37.8565 254.442 37.6682 254.442 37.4898V28.5547C254.442 27.2762 254.07 26.2652 253.327 25.5219C252.573 24.7686 251.557 24.392 250.279 24.392H248.257V27.7668H250.026C250.314 27.7668 250.561 27.8709 250.769 28.079C250.968 28.2772 251.067 28.52 251.067 28.8075V37.4898C251.067 38.4116 251.334 39.254 251.87 40.0172L252.509 40.8795L251.87 41.7418C251.334 42.5149 251.067 43.3574 251.067 44.2692V52.9664C251.067 53.2538 250.968 53.4967 250.769 53.6949C250.561 53.903 250.314 54.0071 250.026 54.0071H248.257V57.3671H250.279Z" fill="black"/>
</svg>
