<svg width="166" height="210" viewBox="0 0 166 210" fill="none" xmlns="http://www.w3.org/2000/svg">
<path fill-rule="evenodd" clip-rule="evenodd" d="M83 15.5C45.7208 15.5 15.5 45.7208 15.5 83C15.5 120.279 45.7208 150.5 83 150.5C83.0621 150.5 83.1241 150.501 83.1859 150.502L52.6361 119.242C49.741 116.28 49.7956 111.531 52.758 108.636C55.7204 105.741 60.4688 105.796 63.3639 108.758L105.681 152.059C108.909 155.362 108.909 160.638 105.681 163.941L63.3639 207.242C60.4688 210.204 55.7204 210.259 52.758 207.364C49.7956 204.469 49.741 199.72 52.6361 196.758L83.1859 165.498C83.1241 165.499 83.0621 165.5 83 165.5C37.4365 165.5 0.5 128.563 0.5 83C0.5 37.4365 37.4365 0.5 83 0.5C128.563 0.5 165.5 37.4365 165.5 83C165.5 105.78 156.258 126.415 141.336 141.336C138.407 144.265 133.659 144.265 130.73 141.336C127.801 138.407 127.801 133.659 130.73 130.73C142.953 118.506 150.5 101.642 150.5 83C150.5 45.7208 120.279 15.5 83 15.5Z" fill="#1EFFBC"/>
</svg>
