<svg width="200" height="210" viewBox="0 0 200 210" fill="none" xmlns="http://www.w3.org/2000/svg">
<path d="M123.352 95.9648L115.4 65.7652H115.401L100.354 1.52216L99.9887 0.00184945L99.6229 1.52216L84.5805 65.763L76.6273 95.9648H123.352Z" fill="#1EFFBC"/>
<path d="M99.9897 209.779L63.3623 146.338L71.1973 116.585H128.782L136.617 146.338L99.9897 209.779Z" fill="#1EFFBC"/>
<path d="M51.2308 125.326L85.3674 0H62.9304L37.0503 100.765L51.2308 125.326Z" fill="#1EFFBC"/>
<path d="M114.612 0L148.749 125.326L162.936 100.753L137.057 0H114.612Z" fill="#1EFFBC"/>
<path fill-rule="evenodd" clip-rule="evenodd" d="M3.25308 106.399L52.9742 201.357L80.5662 209.768L20.8876 100.702L48.3171 1.35259e-05H25.8801L0 100.765L3.25308 106.399Z" fill="#1EFFBC"/>
<path d="M174.12 0H151.683L179.108 100.688L119.422 209.768L147.014 201.357L196.743 106.406L200 100.765L174.12 0Z" fill="#1EFFBC"/>
</svg>
