<svg width="200" height="209" viewBox="0 0 200 209" fill="none" xmlns="http://www.w3.org/2000/svg">
<path d="M100 209L63 146L71 116H129L137 146L100 209Z" fill="#1EFFBC"/>
<path d="M51 125L85 0H63L37 100L51 125Z" fill="#1EFFBC"/>
<path d="M115 0.00184259L149 125L163 100L137 0.00184259H115Z" fill="#1EFFBC"/>
<path d="M26 1.34757e-05H48L21 100L80 209L53 201L0 100L26 1.34757e-05Z" fill="#1EFFBC"/>
<path d="M174 0H152L179 100L119 209L147 201L200 100L174 0Z" fill="#1EFFBC"/>
<path d="M124 96H76L100 0L124 96Z" fill="#1EFFBC"/>
</svg>
