<svg width="70" height="74" viewBox="0 0 70 74" fill="none" xmlns="http://www.w3.org/2000/svg">
<path d="M43.1733 33.5877L40.3899 23.0178L35.1241 0.532755L34.996 0.000647309L34.868 0.532755L29.6032 23.017L26.8196 33.5877H43.1733Z" fill="black"/>
<path d="M34.9964 73.4227L22.1768 51.2185L24.9191 40.8048H45.0738L47.816 51.2185L34.9964 73.4227Z" fill="black"/>
<path d="M17.9308 43.8641L29.8786 0H22.0256L12.9676 35.2677L17.9308 43.8641Z" fill="black"/>
<path d="M40.1143 0L52.062 43.8641L57.0276 35.2636L47.9701 0H40.1143Z" fill="black"/>
<path fill-rule="evenodd" clip-rule="evenodd" d="M1.13858 37.2397L18.541 70.4748L28.1982 73.4189L7.31068 35.2458L16.911 4.73406e-06H9.05802L0 35.2677L1.13858 37.2397Z" fill="black"/>
<path d="M60.942 0H53.089L62.688 35.2408L41.7977 73.4189L51.4549 70.4748L68.86 37.2423L70 35.2677L60.942 0Z" fill="black"/>
</svg>
