<svg width="230" height="236" viewBox="0 0 230 236" fill="none" xmlns="http://www.w3.org/2000/svg">
<path d="M111.125 4.67856L107.752 2.73113L76.8318 56.2861H81.3292L111.125 4.67856Z" fill="white"/>
<path d="M124.407 46.116C123.476 45.5782 123.156 44.3872 123.694 43.4557L126.615 38.3962C127.153 37.4647 128.344 37.1456 129.276 37.6833L136.022 41.5782C136.953 42.116 137.272 43.307 136.734 44.2385L133.813 49.298C133.276 50.2295 132.085 50.5486 131.153 50.0108L124.407 46.116Z" fill="white"/>
<path d="M163.584 94.261C163.584 98.0254 160.533 101.077 156.768 101.077C153.004 101.077 149.952 98.0254 149.952 94.261C149.952 90.4967 153.004 87.445 156.768 87.445C160.533 87.445 163.584 90.4967 163.584 94.261Z" fill="white"/>
<path fill-rule="evenodd" clip-rule="evenodd" d="M151.9 83.5502C148.673 83.5502 146.057 86.1659 146.057 89.3925V99.1296C146.057 102.356 148.673 104.972 151.9 104.972H179.164C180.239 104.972 181.111 104.1 181.111 103.024V85.4976C181.111 84.4221 180.239 83.5502 179.164 83.5502H151.9ZM156.768 101.077C160.533 101.077 163.584 98.0254 163.584 94.261C163.584 90.4967 160.533 87.445 156.768 87.445C153.004 87.445 149.952 90.4967 149.952 94.261C149.952 98.0254 153.004 101.077 156.768 101.077Z" fill="#1EFFBC"/>
<path d="M43.6769 54.2962C45.251 55.8445 48.6781 56.2861 50.6332 56.2861H65.5883L70.0861 48.4956H52.5806L52.574 48.4956L50.6332 48.4964C44.4014 48.4964 42.8435 51.093 42.8435 52.3913C42.8435 52.9183 42.992 53.3784 43.2515 53.7793C43.3701 53.9626 43.512 54.1336 43.6735 54.2929L43.6769 54.2962Z" fill="#1EFFBC"/>
<path d="M159.689 48.4956H159.055C159.683 50.0941 159.603 51.9533 158.678 53.5562L157.102 56.2861H169.232C168.33 51.8412 164.4 48.4956 159.689 48.4956Z" fill="#1EFFBC"/>
<path fill-rule="evenodd" clip-rule="evenodd" d="M116.063 22.2063C113.269 20.593 109.696 21.5504 108.082 24.3447L89.6409 56.2861H157.102L158.678 53.5562C159.603 51.9533 159.683 50.0941 159.055 48.4956C158.588 47.3075 157.731 46.2633 156.54 45.5755L143.56 38.0816L116.063 22.2063ZM123.694 43.4557C123.156 44.3872 123.476 45.5782 124.407 46.116L131.153 50.0108C132.085 50.5486 133.276 50.2295 133.813 49.298L136.734 44.2385C137.272 43.307 136.953 42.116 136.022 41.5782L129.276 37.6833C128.344 37.1456 127.153 37.4647 126.615 38.3962L123.694 43.4557Z" fill="black"/>
<path d="M144.855 24.1529L111.125 4.67856L81.3292 56.2861H89.6409L108.082 24.3447C109.696 21.5504 113.269 20.593 116.063 22.2063L143.56 38.0816L146.994 32.1336C148.607 29.3393 147.65 25.7662 144.855 24.1529Z" fill="#5C6F68"/>
<path d="M104.379 0.783694C101.584 -0.829611 98.0113 0.127798 96.398 2.92212L70.0861 48.4956L65.5883 56.2861H76.8318L107.752 2.73113L104.379 0.783694Z" fill="#5C6F68"/>
<path d="M227.849 179.149C229.472 182.394 231.744 188.886 227.849 196.675V196.776L141.189 235.624L90.0687 224.913L38.862 210.016H0V167.173H30.1852C38.624 163.927 69.4259 147.99 90.0687 155.779L171.374 173.063C172.997 176.39 175.269 184.991 171.374 192.781L107.109 180.54V195.145L171.374 204.465L227.849 179.149Z" fill="#5C6F68"/>
<path fill-rule="evenodd" clip-rule="evenodd" d="M42.8435 64.0759V116.656V126.394C42.8435 132.625 48.0366 134.183 50.6332 134.183H171.374C173.971 134.183 179.164 132.625 179.164 126.394V104.972H151.9C148.673 104.972 146.057 102.356 146.057 99.1296V89.3925C146.057 86.1659 148.673 83.5502 151.9 83.5502H179.164V64.0759C179.164 57.8441 173.971 56.2861 171.374 56.2861H169.232H157.102H89.6409H81.3292H76.8318H65.5883H50.6332C48.6781 56.2861 45.251 55.8445 43.6769 54.2962L43.6735 54.2929C43.512 54.1336 43.3701 53.9626 43.2515 53.7793C42.992 53.3784 42.8435 52.9183 42.8435 52.3913V56.2861V58.2328V64.0759ZM71.5718 121.16H76.7844V116.14C78.6553 115.964 80.3581 115.555 81.8927 114.913C82.0864 114.832 82.2774 114.747 82.4657 114.659C84.7303 113.605 86.4776 112.131 87.7076 110.237C88.7827 108.607 89.3953 106.747 89.5453 104.655C89.5697 104.315 89.5818 103.97 89.5818 103.619C89.5818 100.71 88.8107 98.3864 87.2683 96.6489C85.726 94.8918 83.2173 93.4959 79.7422 92.4612L76.7844 91.5848V77.6514C76.9356 77.6902 77.0851 77.7321 77.233 77.7772C77.7578 77.9371 78.2623 78.1364 78.7465 78.3752C80.1717 79.0585 81.3431 80.0249 82.2607 81.2744C83.1978 82.5239 83.803 83.9784 84.0763 85.6378L89.3475 84.6714C88.8595 82.1139 87.9126 79.9176 86.5069 78.0824C85.1208 76.2472 83.3637 74.8415 81.2357 73.8654C80.7783 73.6514 80.3075 73.4599 79.8231 73.291C78.8633 72.9564 77.8504 72.7103 76.7844 72.5526V67.3642H71.5718V72.46C69.8057 72.6528 68.1986 73.0818 66.7506 73.7472L66.6793 73.7802L66.6226 73.8068C64.5337 74.783 62.9035 76.1691 61.7321 77.9652C60.5802 79.7419 60.0043 81.8211 60.0043 84.2029C60.0043 84.5929 60.0213 84.9732 60.0553 85.3439C60.1411 86.2791 60.3351 87.1526 60.6373 87.9646C61.5961 90.5401 63.6439 92.4955 66.7807 93.8307C67.0917 93.963 67.4134 94.0893 67.7458 94.2095C68.0367 94.3147 68.3359 94.4152 68.6433 94.5111L71.5718 95.419V110.919C70.0691 110.553 68.7122 109.915 67.5012 109.007C67.2771 108.837 67.0616 108.661 66.8547 108.478C65.2052 107.018 64.1029 105.135 63.5477 102.828L58.4229 103.677C58.872 106.235 59.8286 108.46 61.2928 110.354C62.7571 112.228 64.6215 113.683 66.8862 114.718C68.3343 115.361 69.8961 115.801 71.5718 116.036V121.16ZM112.468 121.16H117.68V116.14C119.788 115.942 121.681 115.448 123.362 114.659L123.415 114.634C125.654 113.582 127.383 112.116 128.604 110.237C129.853 108.343 130.478 106.137 130.478 103.619C130.478 103.226 130.464 102.844 130.436 102.473C130.256 100.093 129.499 98.152 128.164 96.6489C126.622 94.8918 124.113 93.4959 120.638 92.4612L117.68 91.5848V77.6514C118.368 77.8278 119.022 78.0691 119.643 78.3752C119.814 78.4575 119.982 78.5439 120.146 78.6345C121.346 79.2954 122.35 80.1754 123.157 81.2744C124.094 82.5239 124.699 83.9784 124.972 85.6378L130.244 84.6714C129.756 82.1139 128.809 79.9176 127.403 78.0824C126.149 76.4226 124.592 75.1141 122.732 74.157C122.535 74.0558 122.335 73.9587 122.132 73.8654C120.768 73.2274 119.284 72.7898 117.68 72.5526V67.3642H112.468V72.46C110.65 72.6585 109 73.1074 107.519 73.8068C105.43 74.783 103.8 76.1691 102.628 77.9652C101.476 79.7419 100.9 81.8211 100.9 84.2029C100.9 89.2789 103.78 92.715 109.539 94.5111L112.468 95.419V110.919C110.965 110.553 109.608 109.915 108.397 109.007C106.909 107.88 105.801 106.459 105.072 104.745C104.816 104.142 104.606 103.503 104.444 102.828L99.319 103.677C99.6559 105.596 100.278 107.328 101.187 108.873C101.489 109.387 101.823 109.881 102.189 110.354C103.653 112.228 105.518 113.683 107.782 114.718C109.23 115.361 110.792 115.801 112.468 116.036V121.16Z" fill="#5C6F68"/>
<path d="M71.5718 77.4834C70.8277 77.6201 70.1249 77.8295 69.4632 78.1117C69.0937 78.2716 68.746 78.4495 68.4202 78.6452C67.7613 79.041 67.1916 79.5101 66.711 80.0523C66.5879 80.1913 66.4705 80.3351 66.3591 80.4837C65.5977 81.4989 65.217 82.6606 65.217 83.9686C65.217 84.0417 65.2184 84.1142 65.2211 84.1861C65.2716 85.4952 65.7808 86.6174 66.7489 87.5527C66.7653 87.5685 66.7817 87.5842 66.7983 87.5999C67.6317 88.3575 68.8297 89.0328 70.3922 89.6258C70.7647 89.7672 71.1578 89.9038 71.5718 90.0358V77.4834Z" fill="#5C6F68"/>
<path d="M76.7844 111.173C78.7704 110.921 80.4397 110.267 81.7921 109.212C83.5687 107.826 84.457 106.039 84.457 103.853C84.457 102.956 84.307 102.158 84.0069 101.457C83.7712 100.907 83.4429 100.417 83.0221 99.9873C82.085 99.0112 80.5036 98.1814 78.2779 97.4981L76.7844 97.0351V111.173Z" fill="#5C6F68"/>
<path d="M112.468 77.4834C111.724 77.6201 111.021 77.8295 110.359 78.1117C109.051 78.6778 108.017 79.4685 107.255 80.4837C106.494 81.4989 106.113 82.6606 106.113 83.9686C106.113 85.3938 106.64 86.6042 107.694 87.5999C108.726 88.5381 110.318 89.3501 112.468 90.0358V77.4834Z" fill="#5C6F68"/>
<path d="M117.68 111.173C119.666 110.921 121.336 110.267 122.688 109.212C124.465 107.826 125.353 106.039 125.353 103.853C125.353 102.252 124.875 100.963 123.918 99.9873C122.981 99.0112 121.4 98.1814 119.174 97.4981L117.68 97.0351V111.173Z" fill="#5C6F68"/>
<path fill-rule="evenodd" clip-rule="evenodd" d="M117.68 121.16H112.468V116.036C110.792 115.801 109.23 115.361 107.782 114.718C105.518 113.683 103.653 112.228 102.189 110.354C101.823 109.881 101.489 109.387 101.187 108.873C100.278 107.328 99.6559 105.596 99.319 103.677L104.444 102.828C104.606 103.503 104.816 104.142 105.072 104.745C105.801 106.459 106.909 107.88 108.397 109.007C109.608 109.915 110.965 110.553 112.468 110.919V95.419L109.539 94.5111C103.78 92.715 100.9 89.2789 100.9 84.2029C100.9 81.8211 101.476 79.7419 102.628 77.9652C103.8 76.1691 105.43 74.783 107.519 73.8068C109 73.1074 110.65 72.6585 112.468 72.46V67.3642H117.68V72.5526C119.284 72.7898 120.768 73.2274 122.132 73.8654C122.335 73.9587 122.535 74.0558 122.732 74.157C124.592 75.1141 126.149 76.4226 127.403 78.0824C128.809 79.9176 129.756 82.1139 130.244 84.6714L124.972 85.6378C124.699 83.9784 124.094 82.5239 123.157 81.2744C122.35 80.1754 121.346 79.2954 120.146 78.6345C119.982 78.5439 119.814 78.4575 119.643 78.3752C119.022 78.0691 118.368 77.8278 117.68 77.6514V91.5848L120.638 92.4612C124.113 93.4959 126.622 94.8918 128.164 96.6489C129.499 98.152 130.256 100.093 130.436 102.473C130.464 102.844 130.478 103.226 130.478 103.619C130.478 106.137 129.853 108.343 128.604 110.237C127.383 112.116 125.654 113.582 123.415 114.634L123.362 114.659C121.681 115.448 119.788 115.942 117.68 116.14V121.16ZM122.688 109.212C121.336 110.267 119.666 110.921 117.68 111.173V97.0351L119.174 97.4981C121.4 98.1814 122.981 99.0112 123.918 99.9873C124.875 100.963 125.353 102.252 125.353 103.853C125.353 106.039 124.465 107.826 122.688 109.212ZM110.359 78.1117C111.021 77.8295 111.724 77.6201 112.468 77.4834V90.0358C110.318 89.3501 108.726 88.5381 107.694 87.5999C106.64 86.6042 106.113 85.3938 106.113 83.9686C106.113 82.6606 106.494 81.4989 107.255 80.4837C108.017 79.4685 109.051 78.6778 110.359 78.1117Z" fill="white"/>
<path fill-rule="evenodd" clip-rule="evenodd" d="M76.7844 121.16H71.5718V116.036C69.8961 115.801 68.3343 115.361 66.8862 114.718C64.6215 113.683 62.7571 112.228 61.2928 110.354C59.8286 108.46 58.872 106.235 58.4229 103.677L63.5477 102.828C64.1029 105.135 65.2052 107.018 66.8547 108.478C67.0616 108.661 67.2771 108.837 67.5012 109.007C68.7122 109.915 70.0691 110.553 71.5718 110.919V95.419L68.6433 94.5111C68.3359 94.4152 68.0367 94.3147 67.7458 94.2095C67.4134 94.0893 67.0917 93.963 66.7807 93.8307C63.6439 92.4955 61.5961 90.5401 60.6373 87.9646C60.3351 87.1526 60.1411 86.2791 60.0553 85.3439C60.0213 84.9732 60.0043 84.5929 60.0043 84.2029C60.0043 81.8211 60.5802 79.7419 61.7321 77.9652C62.9035 76.1691 64.5337 74.783 66.6226 73.8068L66.6793 73.7802L66.7506 73.7472C68.1986 73.0818 69.8057 72.6528 71.5718 72.46V67.3642H76.7844V72.5526C77.8504 72.7103 78.8633 72.9564 79.8231 73.291C80.3075 73.4599 80.7783 73.6514 81.2357 73.8654C83.3637 74.8415 85.1208 76.2472 86.5069 78.0824C87.9126 79.9176 88.8595 82.1139 89.3475 84.6714L84.0763 85.6378C83.803 83.9784 83.1978 82.5239 82.2607 81.2744C81.3431 80.0249 80.1717 79.0585 78.7465 78.3752C78.2623 78.1364 77.7578 77.9371 77.233 77.7772C77.0851 77.7321 76.9356 77.6902 76.7844 77.6514V91.5848L79.7422 92.4612C83.2173 93.4959 85.726 94.8918 87.2683 96.6489C88.8107 98.3864 89.5818 100.71 89.5818 103.619C89.5818 103.97 89.5697 104.315 89.5453 104.655C89.3953 106.747 88.7827 108.607 87.7076 110.237C86.4776 112.131 84.7303 113.605 82.4657 114.659C82.2774 114.747 82.0864 114.832 81.8927 114.913C80.3581 115.555 78.6553 115.964 76.7844 116.14V121.16ZM81.7921 109.212C80.4397 110.267 78.7704 110.921 76.7844 111.173V97.0351L78.2779 97.4981C80.5036 98.1814 82.085 99.0112 83.0221 99.9873C83.4429 100.417 83.7712 100.907 84.0069 101.457C84.307 102.158 84.457 102.956 84.457 103.853C84.457 106.039 83.5687 107.826 81.7921 109.212ZM69.4632 78.1117C70.1249 77.8295 70.8277 77.6201 71.5718 77.4834V90.0358C71.1578 89.9038 70.7647 89.7672 70.3922 89.6258C68.8297 89.0328 67.6317 88.3575 66.7983 87.5999C66.7817 87.5842 66.7653 87.5685 66.7489 87.5527C65.7808 86.6174 65.2716 85.4952 65.2211 84.1861C65.2184 84.1142 65.217 84.0417 65.217 83.9686C65.217 82.6606 65.5977 81.4989 66.3591 80.4837C66.4705 80.3351 66.5879 80.1913 66.711 80.0523C67.1916 79.5101 67.7613 79.041 68.4202 78.6452C68.746 78.4495 69.0937 78.2716 69.4632 78.1117Z" fill="white"/>
</svg>
