<svg width="700" height="459" viewBox="0 0 700 459" fill="none" xmlns="http://www.w3.org/2000/svg">
<path d="M25 10H675C683.284 10 690 16.7157 690 25V219.129C690 223.113 688.415 226.933 685.595 229.747L470.256 444.618C467.444 447.424 463.633 449 459.661 449H240.339C236.367 449 232.556 447.424 229.744 444.618L14.4049 229.747C11.5848 226.933 10 223.113 10 219.129V25C10 16.7157 16.7157 10 25 10Z" fill="#1EFFBC" stroke="white" stroke-width="20"/>
<rect x="265" y="327.853" width="20" height="120" rx="10" transform="rotate(-45 265 327.853)" fill="white"/>
<rect x="349.853" y="412.706" width="20" height="120" rx="10" transform="rotate(-135 349.853 412.706)" fill="white"/>
<rect x="523.853" y="356.563" width="20" height="150" rx="10" transform="rotate(-135 523.853 356.563)" fill="white"/>
<rect x="453.142" y="427.274" width="20" height="90" rx="10" transform="rotate(-135 453.142 427.274)" fill="white"/>
<rect x="636.99" y="243.426" width="20" height="40" rx="10" transform="rotate(-135 636.99 243.426)" fill="white"/>
<rect x="204" y="54" width="20" height="130" rx="10" transform="rotate(-90 204 54)" fill="white"/>
<rect x="34" y="54" width="20" height="110" rx="10" transform="rotate(-90 34 54)" fill="white"/>
<rect x="154" y="54" width="20" height="40" rx="10" transform="rotate(-90 154 54)" fill="white"/>
<rect x="54" y="164" width="20" height="130" rx="10" transform="rotate(-180 54 164)" fill="white"/>
<rect x="54" y="214" width="20" height="40" rx="10" transform="rotate(-180 54 214)" fill="white"/>
</svg>
