<svg width="301" height="197" viewBox="0 0 301 197" fill="none" xmlns="http://www.w3.org/2000/svg">
<path d="M8.5 71.4805C7.67157 71.4805 7 70.8089 7 69.9805V25.9805C7 25.1521 7.67157 24.4805 8.5 24.4805C9.32843 24.4805 10 25.1521 10 25.9805V69.9805C10 70.8089 9.32843 71.4805 8.5 71.4805Z" fill="#1EFFBC"/>
<path d="M8.5 114.481C7.67157 114.481 7 113.809 7 112.981V85.9805C7 85.1521 7.67157 84.4805 8.5 84.4805C9.32843 84.4805 10 85.1521 10 85.9805V112.981C10 113.809 9.32843 114.481 8.5 114.481Z" fill="#1EFFBC"/>
<path d="M84.19 8.48002C84.19 7.65159 84.8616 6.98002 85.69 6.98002H173.013C173.841 6.98002 174.513 7.65159 174.513 8.48002C174.513 9.30844 173.841 9.98002 173.013 9.98002H85.69C84.8616 9.98002 84.19 9.30844 84.19 8.48002Z" fill="#1EFFBC"/>
<path d="M286.79 114.801C286.301 114.133 285.362 113.988 284.694 114.477L214.236 166.062C213.568 166.551 213.423 167.49 213.912 168.158C214.402 168.827 215.34 168.972 216.009 168.482L286.466 116.898C287.135 116.408 287.28 115.47 286.79 114.801Z" fill="#1EFFBC"/>
<path d="M75.67 8.48002C75.67 7.65159 76.3416 6.98002 77.17 6.98002H78.6861C79.5146 6.98002 80.1861 7.65159 80.1861 8.48002C80.1861 9.30844 79.5146 9.98002 78.6861 9.98002H77.17C76.3416 9.98002 75.67 9.30844 75.67 8.48002Z" fill="#1EFFBC"/>
<path d="M8.5 80.4805C7.67157 80.4805 7 79.8089 7 78.9805V76.9805C7 76.1521 7.67157 75.4805 8.5 75.4805C9.32843 75.4805 10 76.1521 10 76.9805V78.9805C10 79.8089 9.32843 80.4805 8.5 80.4805Z" fill="#1EFFBC"/>
<path d="M25 8.48002C25 7.65159 25.6716 6.98002 26.5 6.98002H70.1667C70.9951 6.98002 71.6667 7.65159 71.6667 8.48002C71.6667 9.30844 70.9951 9.98002 70.1667 9.98002H26.5C25.6716 9.98002 25 9.30844 25 8.48002Z" fill="#1EFFBC"/>
<path d="M210.92 170.691C211.41 171.359 211.265 172.298 210.596 172.787L208.983 173.969C208.314 174.458 207.375 174.313 206.886 173.645C206.397 172.976 206.542 172.038 207.21 171.548L208.824 170.367C209.492 169.877 210.431 170.022 210.92 170.691Z" fill="#1EFFBC"/>
<path d="M204.006 175.994C204.496 176.662 204.35 177.601 203.682 178.09L189.082 188.78C188.413 189.269 187.475 189.124 186.985 188.455C186.496 187.787 186.641 186.848 187.31 186.359L201.91 175.669C202.578 175.18 203.517 175.325 204.006 175.994Z" fill="#1EFFBC"/>
<path fill-rule="evenodd" clip-rule="evenodd" d="M296.004 114.784L295.977 24.4885C296.046 17.6592 291.948 4.00073 275 4.00073H25.0061C8.2928 4.00073 4.03816 17.6591 4 24.4883L3.99597 114.791L110.781 192.82H189.219L296.004 114.784ZM7 69.9805C7 70.8089 7.67157 71.4805 8.5 71.4805C9.32843 71.4805 10 70.8089 10 69.9805V25.9805C10 25.1521 9.32843 24.4805 8.5 24.4805C7.67157 24.4805 7 25.1521 7 25.9805V69.9805ZM7 112.981C7 113.809 7.67157 114.481 8.5 114.481C9.32843 114.481 10 113.809 10 112.981V85.9805C10 85.1521 9.32843 84.4805 8.5 84.4805C7.67157 84.4805 7 85.1521 7 85.9805V112.981ZM85.69 6.98002C84.8616 6.98002 84.19 7.65159 84.19 8.48002C84.19 9.30844 84.8616 9.98002 85.69 9.98002H173.013C173.841 9.98002 174.513 9.30844 174.513 8.48002C174.513 7.65159 173.841 6.98002 173.013 6.98002H85.69ZM284.694 114.477C285.362 113.988 286.301 114.133 286.79 114.801C287.28 115.47 287.135 116.408 286.466 116.898L216.009 168.482C215.34 168.972 214.402 168.827 213.912 168.158C213.423 167.49 213.568 166.551 214.236 166.062L284.694 114.477ZM77.17 6.98002C76.3416 6.98002 75.67 7.65159 75.67 8.48002C75.67 9.30844 76.3416 9.98002 77.17 9.98002H78.6861C79.5146 9.98002 80.1861 9.30844 80.1861 8.48002C80.1861 7.65159 79.5146 6.98002 78.6861 6.98002H77.17ZM7 78.9805C7 79.8089 7.67157 80.4805 8.5 80.4805C9.32843 80.4805 10 79.8089 10 78.9805V76.9805C10 76.1521 9.32843 75.4805 8.5 75.4805C7.67157 75.4805 7 76.1521 7 76.9805V78.9805ZM26.5 6.98002C25.6716 6.98002 25 7.65159 25 8.48002C25 9.30844 25.6716 9.98002 26.5 9.98002H70.1667C70.9951 9.98002 71.6667 9.30844 71.6667 8.48002C71.6667 7.65159 70.9951 6.98002 70.1667 6.98002H26.5ZM210.596 172.787C211.265 172.298 211.41 171.359 210.92 170.691C210.431 170.022 209.492 169.877 208.824 170.367L207.21 171.548C206.542 172.038 206.397 172.976 206.886 173.645C207.375 174.313 208.314 174.458 208.983 173.969L210.596 172.787ZM203.682 178.09C204.35 177.601 204.496 176.662 204.006 175.994C203.517 175.325 202.578 175.18 201.91 175.669L187.31 186.359C186.641 186.848 186.496 187.787 186.985 188.455C187.475 189.124 188.413 189.269 189.082 188.78L203.682 178.09ZM151.061 179.953L150.901 180.088C150.895 180.093 150.889 180.097 150.883 180.101C150.856 180.12 150.829 180.138 150.802 180.155L150.799 180.157C150.577 180.293 150.323 180.368 150.066 180.377C150.049 180.378 150.032 180.378 150.015 180.378C150.005 180.378 149.996 180.378 149.986 180.378C149.977 180.378 149.969 180.377 149.96 180.377C149.941 180.376 149.922 180.375 149.902 180.374C149.684 180.357 149.469 180.293 149.276 180.183C149.246 180.166 149.216 180.148 149.187 180.129C149.177 180.122 149.167 180.116 149.157 180.109L149.133 180.092L149.128 180.088L148.969 179.953L123.528 158.399C122.86 157.909 122.715 156.971 123.204 156.302C123.693 155.634 124.632 155.489 125.3 155.978L150.015 176.917L174.729 155.978C175.398 155.489 176.336 155.634 176.826 156.302C177.315 156.971 177.17 157.909 176.502 158.399L151.061 179.953Z" fill="white"/>
<path fill-rule="evenodd" clip-rule="evenodd" d="M0 116.824L109.48 196.824H190.511L300.008 116.816V24.4885C300.041 16.3256 295.085 0 275 0L25.0061 0.0153809C4.92782 0.0166162 -0.0279797 16.3312 0.00390625 24.4883L0 116.824ZM296.004 114.784L295.977 24.4885C296.046 17.6592 291.948 4.00073 275 4.00073H25.0061C8.2928 4.00073 4.03816 17.6591 4 24.4883L3.99597 114.791L110.781 192.82H189.219L296.004 114.784Z" fill="#1EFFBC"/>
<path d="M176.502 158.399C177.17 157.909 177.315 156.971 176.826 156.302C176.336 155.634 175.398 155.489 174.729 155.978L150.015 176.917L125.3 155.978C124.632 155.489 123.693 155.634 123.204 156.302C122.715 156.971 122.86 157.909 123.528 158.399L148.969 179.953L149.128 180.088L149.133 180.092L149.157 180.109C149.167 180.116 149.177 180.122 149.187 180.129C149.216 180.148 149.246 180.166 149.276 180.183C149.469 180.293 149.684 180.357 149.902 180.374C149.922 180.375 149.941 180.376 149.96 180.377L149.986 180.378C149.996 180.378 150.005 180.378 150.015 180.378C150.032 180.378 150.049 180.378 150.066 180.377C150.323 180.368 150.577 180.293 150.799 180.157L150.802 180.155C150.829 180.138 150.856 180.12 150.883 180.101C150.889 180.097 150.895 180.093 150.901 180.088L151.061 179.953L176.502 158.399Z" fill="#1EFFBC"/>
</svg>
