<svg width="250" height="182" viewBox="0 0 250 182" fill="none" xmlns="http://www.w3.org/2000/svg">
<path d="M0 21.4286C0 9.5939 9.5939 0 21.4286 0H228.571C240.406 0 250 9.5939 250 21.4286V32.8571H0V21.4286Z" fill="#5C6F68"/>
<path d="M32.8571 16.4286C32.8571 21.5569 28.6998 25.7143 23.5714 25.7143C18.4431 25.7143 14.2857 21.5569 14.2857 16.4286C14.2857 11.3002 18.4431 7.14286 23.5714 7.14286C28.6998 7.14286 32.8571 11.3002 32.8571 16.4286Z" fill="black"/>
<path d="M54.2857 16.4286C54.2857 21.5569 50.1284 25.7143 45 25.7143C39.8716 25.7143 35.7143 21.5569 35.7143 16.4286C35.7143 11.3002 39.8716 7.14286 45 7.14286C50.1284 7.14286 54.2857 11.3002 54.2857 16.4286Z" fill="#1EFFBC"/>
<path d="M75.7143 16.4286C75.7143 21.5569 71.5569 25.7143 66.4286 25.7143C61.3002 25.7143 57.1429 21.5569 57.1429 16.4286C57.1429 11.3002 61.3002 7.14286 66.4286 7.14286C71.5569 7.14286 75.7143 11.3002 75.7143 16.4286Z" fill="white"/>
<path d="M104.286 16.4286C104.286 11.3002 108.443 7.14286 113.571 7.14286H226.429C231.557 7.14286 235.714 11.3002 235.714 16.4286C235.714 21.5569 231.557 25.7143 226.429 25.7143H113.571C108.443 25.7143 104.286 21.5569 104.286 16.4286Z" fill="#1EFFBC"/>
<path d="M0 32.8571H250V160C250 171.835 240.406 181.429 228.571 181.429H21.4286C9.5939 181.429 0 171.835 0 160V32.8571Z" fill="black"/>
<path d="M81.4286 90.7143H98.8571C98.8571 83.4951 101.783 76.9594 106.514 72.2285L94.1903 59.9046C86.3055 67.7895 81.4286 78.6824 81.4286 90.7143Z" fill="#1EFFBC"/>
<path d="M125 47.1429V64.5714C132.219 64.5714 138.755 67.4976 143.486 72.2285L155.81 59.9046C147.925 52.0198 137.032 47.1429 125 47.1429Z" fill="white"/>
<path d="M151.143 90.7143H168.571C168.571 78.6824 163.695 67.7895 155.81 59.9046L143.486 72.2285C148.217 76.9594 151.143 83.4951 151.143 90.7143Z" fill="#5C6F68"/>
<path d="M98.8571 90.7143H81.4286C81.4286 102.746 86.3055 113.639 94.1903 121.524L106.514 109.2C101.783 104.469 98.8571 97.9334 98.8571 90.7143Z" fill="#5C6F68"/>
<path d="M125 64.5714V47.1429C112.968 47.1429 102.075 52.0198 94.1903 59.9046L106.514 72.2285C111.245 67.4976 117.781 64.5714 125 64.5714Z" fill="#5C6F68"/>
<path d="M168.571 90.7143H151.143C151.143 97.9334 148.217 104.469 143.486 109.2L155.81 121.524C163.695 113.639 168.571 102.746 168.571 90.7143Z" fill="#1EFFBC"/>
<path d="M143.486 109.2C148.217 104.469 151.143 97.9334 151.143 90.7143C151.143 83.4951 148.217 76.9594 143.486 72.2285C138.755 67.4976 132.219 64.5714 125 64.5714C117.781 64.5714 111.245 67.4976 106.514 72.2285C101.783 76.9594 98.8571 83.4951 98.8571 90.7143C98.8571 97.9334 101.783 104.469 106.514 109.2C111.245 113.931 117.781 116.857 125 116.857C132.219 116.857 138.755 113.931 143.486 109.2Z" fill="black"/>
<path fill-rule="evenodd" clip-rule="evenodd" d="M131.602 85.2864L160.6 77.521L133.395 90.212L131.602 85.2864Z" fill="#1EFFBC"/>
<path d="M134.286 90.7143C134.286 95.8426 130.128 100 125 100C119.872 100 115.714 95.8426 115.714 90.7143C115.714 85.5859 119.872 81.4286 125 81.4286C130.128 81.4286 134.286 85.5859 134.286 90.7143Z" fill="white"/>
<path d="M28.5714 157.857C28.5714 152.729 32.4962 148.571 37.3377 148.571H212.662C217.504 148.571 221.429 152.729 221.429 157.857C221.429 162.986 217.504 167.143 212.662 167.143H37.3377C32.4962 167.143 28.5714 162.986 28.5714 157.857Z" fill="#1EFFBC"/>
<path d="M28.5714 157.857C28.5714 152.729 32.4962 148.571 37.3377 148.571H176.245C181.087 148.571 185.012 152.729 185.012 157.857C185.012 162.986 181.087 167.143 176.245 167.143H37.3377C32.4962 167.143 28.5714 162.986 28.5714 157.857Z" fill="#5C6F68"/>
</svg>
