<svg width="700" height="147" viewBox="0 0 700 147" fill="none" xmlns="http://www.w3.org/2000/svg">
<path d="M366 140L496 7H512L381 140H366Z" fill="white"/>
<path fill-rule="evenodd" clip-rule="evenodd" d="M0 0V146.855L700 147V0H0ZM693 140V7H580L450 140H693ZM7 7V140H349L479 7H7ZM496 7L366 140H381L512 7H496Z" fill="#1EFFBC"/>
<path d="M18 80C15.9724 80 14 78.0276 14 76V69C14 66.9724 15.9724 65 18 65C20.0276 65 22 66.9724 22 69V76C22 78.0276 20.0276 80 18 80Z" fill="#1EFFBC"/>
<path d="M18 59C15.9724 59 14 57.0276 14 55V42C14 39.9724 15.9724 38 18 38C20.0276 38 22 39.9724 22 42V55C22 57.0276 20.0276 59 18 59Z" fill="#1EFFBC"/>
<path d="M135 18C135 15.9724 136.972 14 139 14H148C150.028 14 152 15.9724 152 18C152 20.0276 150.028 22 148 22H139C136.972 22 135 20.0276 135 18Z" fill="#1EFFBC"/>
<path d="M158 18C158 15.9724 159.972 14 162 14H380C382.028 14 384 15.9724 384 18C384 20.0276 382.028 22 380 22H162C159.972 22 158 20.0276 158 18Z" fill="#1EFFBC"/>
<path d="M552 129C552 126.972 553.972 125 556 125H561C563.028 125 565 126.972 565 129C565 131.028 563.028 133 561 133H556C553.972 133 552 131.028 552 129Z" fill="#1EFFBC"/>
<path d="M681 109C683.028 109 685 107.028 685 105V72C685 69.9724 683.028 68 681 68C678.972 68 677 69.9724 677 72V105C677 107.028 678.972 109 681 109Z" fill="#1EFFBC"/>
<path d="M681 49C683.028 49 685 50.9724 685 53V58C685 60.0276 683.028 62 681 62C678.972 62 677 60.0276 677 58V53C677 50.9724 678.972 49 681 49Z" fill="#1EFFBC"/>
<path fill-rule="evenodd" clip-rule="evenodd" d="M693 140V7H580L450 140H693ZM681 49C683.028 49 685 50.9724 685 53V58C685 60.0276 683.028 62 681 62C678.972 62 677 60.0276 677 58V53C677 50.9724 678.972 49 681 49ZM681 109C683.028 109 685 107.028 685 105V72C685 69.9724 683.028 68 681 68C678.972 68 677 69.9724 677 72V105C677 107.028 678.972 109 681 109ZM552 129C552 126.972 553.972 125 556 125H561C563.028 125 565 126.972 565 129C565 131.028 563.028 133 561 133H556C553.972 133 552 131.028 552 129ZM575 125C572.972 125 571 126.972 571 129C571 131.028 572.972 133 575 133H681.617C683.644 133 685 131.028 685 129V119C685 116.972 683.028 115 681 115C678.972 115 677 116.972 677 119V125H575Z" fill="white"/>
<path d="M571 129C571 126.972 572.972 125 575 125H677V119C677 116.972 678.972 115 681 115C683.028 115 685 116.972 685 119V129C685 131.028 683.644 133 681.617 133H575C572.972 133 571 131.028 571 129Z" fill="#1EFFBC"/>
<path fill-rule="evenodd" clip-rule="evenodd" d="M7 7V140H349L479 7H7ZM158 18C158 15.9724 159.972 14 162 14H380C382.028 14 384 15.9724 384 18C384 20.0276 382.028 22 380 22H162C159.972 22 158 20.0276 158 18ZM135 18C135 15.9724 136.972 14 139 14H148C150.028 14 152 15.9724 152 18C152 20.0276 150.028 22 148 22H139C136.972 22 135 20.0276 135 18ZM18 80C15.9724 80 14 78.0276 14 76V69C14 66.9724 15.9724 65 18 65C20.0276 65 22 66.9724 22 69V76C22 78.0276 20.0276 80 18 80ZM18 59C15.9724 59 14 57.0276 14 55V42C14 39.9724 15.9724 38 18 38C20.0276 38 22 39.9724 22 42V55C22 57.0276 20.0276 59 18 59ZM18 14C15.9724 14 14 15.9724 14 18V28C14 30.0276 15.9724 32 18 32C20.0276 32 22 30.0276 22 28V22H125C127.028 22 129 20.0276 129 18C129 15.9724 127.028 14 125 14H18Z" fill="white"/>
<path d="M14 18C14 15.9724 15.9724 14 18 14H125C127.028 14 129 15.9724 129 18C129 20.0276 127.028 22 125 22H22V28C22 30.0276 20.0276 32 18 32C15.9724 32 14 30.0276 14 28V18Z" fill="#1EFFBC"/>
</svg>
