<svg width="357" height="67" viewBox="0 0 357 67" fill="none" xmlns="http://www.w3.org/2000/svg">
<path d="M3.0383 33.4213C3.0383 16.6412 16.6412 3.0383 33.4213 3.0383H323.579C340.359 3.0383 353.962 16.6412 353.962 33.4213C353.962 50.2013 340.359 63.8043 323.579 63.8043H33.4213C16.6412 63.8043 3.0383 50.2013 3.0383 33.4213Z" fill="#1EFFBC"/>
<path fill-rule="evenodd" clip-rule="evenodd" d="M33.4213 0H323.579C342.037 0 357 14.9632 357 33.4213C357 51.8793 342.037 66.8426 323.579 66.8426H33.4213C14.9632 66.8426 0 51.8793 0 33.4213C0 14.9632 14.9632 0 33.4213 0ZM33.4213 3.0383C16.6412 3.0383 3.0383 16.6412 3.0383 33.4213C3.0383 50.2013 16.6412 63.8043 33.4213 63.8043H323.579C340.359 63.8043 353.962 50.2013 353.962 33.4213C353.962 16.6412 340.359 3.0383 323.579 3.0383H33.4213Z" fill="white"/>
<path fill-rule="evenodd" clip-rule="evenodd" d="M6.46433 33.648C6.45791 33.5778 6.45532 33.5066 6.45676 33.4345C6.45738 33.4036 6.45804 33.3728 6.45874 33.342C6.45887 33.3338 6.45906 33.3257 6.45929 33.3176C6.47716 32.5485 6.5188 31.7995 6.58306 31.0703C6.67512 30.0256 7.59665 29.2533 8.64135 29.3454C9.68606 29.4374 10.4583 30.3589 10.3663 31.4036C10.3102 32.0404 10.2732 32.6981 10.2568 33.3774C10.3258 36.6197 10.8631 39.3801 11.7142 41.7271C12.0718 42.7131 11.5624 43.8022 10.5764 44.1597C9.59051 44.5172 8.50142 44.0078 8.14388 43.0219C7.15716 40.3009 6.55807 37.1894 6.46433 33.648ZM9.49941 26.1006C8.51152 25.7485 7.9961 24.6623 8.34818 23.6744C8.4148 23.4875 8.48322 23.3023 8.55341 23.1189C8.89772 22.2191 9.28423 21.3621 9.7077 20.5463C10.0609 19.8658 10.4397 19.2145 10.8406 18.5915C11.4082 17.7097 12.5833 17.4549 13.4652 18.0225C14.347 18.5901 14.6018 19.7652 14.0342 20.6471C13.6962 21.1721 13.3768 21.7214 13.0785 22.2961C12.7209 22.9849 12.3933 23.711 12.1004 24.4763C12.0407 24.6323 11.9824 24.79 11.9256 24.9494C11.5736 25.9373 10.4873 26.4527 9.49941 26.1006ZM16.2281 15.0668C15.5952 14.2305 15.7601 13.0395 16.5963 12.4066C18.1093 11.2616 19.6883 10.3167 21.2575 9.54363C21.7684 9.29197 22.2786 9.05835 22.7855 8.84183C23.75 8.42991 24.8658 8.87783 25.2777 9.8423C25.6896 10.8068 25.2417 11.9226 24.2772 12.3345C23.8313 12.5249 23.3834 12.7301 22.9358 12.9505C21.5598 13.6284 20.1898 14.4499 18.8883 15.435C18.052 16.0679 16.861 15.903 16.2281 15.0668ZM30.7487 8.34551C30.7487 7.29676 31.5989 6.44658 32.6476 6.44658H101.048C102.097 6.44658 102.947 7.29676 102.947 8.34551C102.947 9.39427 102.097 10.2444 101.048 10.2444H32.6476C31.5989 10.2444 30.7487 9.39427 30.7487 8.34551ZM108.269 8.34551C108.269 7.29676 109.12 6.44658 110.168 6.44658H114.728C115.777 6.44658 116.627 7.29676 116.627 8.34551C116.627 9.39427 115.777 10.2444 114.728 10.2444H110.168C109.12 10.2444 108.269 9.39427 108.269 8.34551ZM121.95 8.34551C121.95 7.29676 122.8 6.44658 123.848 6.44658H160.329C161.378 6.44658 162.228 7.29676 162.228 8.34551C162.228 9.39427 161.378 10.2444 160.329 10.2444H123.848C122.8 10.2444 121.95 9.39427 121.95 8.34551ZM167.55 58.857C167.55 57.8082 168.4 56.9581 169.449 56.9581H187.689C188.738 56.9581 189.588 57.8082 189.588 58.857C189.588 59.9057 188.738 60.7559 187.689 60.7559H169.449C168.4 60.7559 167.55 59.9057 167.55 58.857ZM167.55 8.34551C167.55 7.29676 168.4 6.44658 169.449 6.44658H187.689C188.738 6.44658 189.588 7.29676 189.588 8.34551C189.588 9.39427 188.738 10.2444 187.689 10.2444H169.449C168.4 10.2444 167.55 9.39427 167.55 8.34551ZM194.91 58.857C194.91 57.8082 195.76 56.9581 196.809 56.9581H233.29C234.338 56.9581 235.188 57.8082 235.188 58.857C235.188 59.9057 234.338 60.7559 233.29 60.7559H196.809C195.76 60.7559 194.91 59.9057 194.91 58.857ZM240.511 58.857C240.511 57.8082 241.361 56.9581 242.41 56.9581H246.97C248.018 56.9581 248.869 57.8082 248.869 58.857C248.869 59.9057 248.018 60.7559 246.97 60.7559H242.41C241.361 60.7559 240.511 59.9057 240.511 58.857ZM254.191 58.857C254.191 57.8082 255.041 56.9581 256.09 56.9581H324.49C325.539 56.9581 326.389 57.8082 326.389 58.857C326.389 59.9057 325.539 60.7559 324.49 60.7559H256.09C255.041 60.7559 254.191 59.9057 254.191 58.857ZM331.86 57.3602C331.448 56.3957 331.896 55.28 332.861 54.868C333.307 54.6776 333.755 54.4724 334.202 54.252C335.578 53.5741 336.948 52.7526 338.25 51.7675C339.086 51.1346 340.277 51.2995 340.91 52.1357C341.543 52.972 341.378 54.163 340.542 54.7959C339.029 55.941 337.45 56.8859 335.88 57.6589C335.37 57.9105 334.859 58.1442 334.352 58.3607C333.388 58.7726 332.272 58.3247 331.86 57.3602ZM343.73 49.2989C342.848 48.7313 342.594 47.5562 343.161 46.6744C343.499 46.1493 343.819 45.6 344.117 45.0253C344.474 44.3365 344.802 43.6105 345.095 42.8452C345.155 42.6891 345.213 42.5314 345.27 42.372C345.622 41.3841 346.708 40.8687 347.696 41.2208C348.684 41.5729 349.199 42.6591 348.847 43.647C348.781 43.8339 348.712 44.0191 348.642 44.2025C348.298 45.1023 347.911 45.9593 347.488 46.7751C347.134 47.4556 346.756 48.1069 346.355 48.7299C345.787 49.6117 344.612 49.8665 343.73 49.2989ZM346.562 23.0428C347.548 22.6853 348.637 23.1947 348.994 24.1806C349.981 26.9016 350.58 30.0131 350.674 33.5545C350.68 33.6247 350.683 33.6959 350.681 33.768L350.679 33.8712C350.661 34.6451 350.62 35.3986 350.555 36.1322C350.463 37.1769 349.541 37.9492 348.497 37.8572C347.452 37.7651 346.68 36.8436 346.772 35.7989C346.828 35.1621 346.865 34.5043 346.881 33.8251C346.812 30.5828 346.275 27.8224 345.424 25.4754C345.066 24.4894 345.576 23.4003 346.562 23.0428Z" fill="white"/>
</svg>
