<svg width="600" height="150" viewBox="0 0 600 150" fill="none" xmlns="http://www.w3.org/2000/svg">
<rect x="7.5" y="7.5" width="585" height="135" fill="#1EFFBC" stroke="white" stroke-width="15"/>
<path d="M392 15H452L350 135H290L392 15Z" fill="white"/>
<path d="M352 15H372L270 135H250L352 15Z" fill="white"/>
<line x1="34" y1="34" x2="34" y2="76" stroke="white" stroke-width="18" stroke-linecap="round"/>
<line x1="34" y1="34" x2="116" y2="34" stroke="white" stroke-width="18" stroke-linecap="round"/>
<line x1="184" y1="34" x2="296" y2="34" stroke="white" stroke-width="18" stroke-linecap="round"/>
<line x1="454" y1="116" x2="566" y2="116" stroke="white" stroke-width="18" stroke-linecap="round"/>
<line x1="566" y1="116" x2="566" y2="74" stroke="white" stroke-width="18" stroke-linecap="round"/>
<line x1="9" y1="-9" x2="21" y2="-9" transform="matrix(0 -1 -1 0 25 125)" stroke="white" stroke-width="18" stroke-linecap="round"/>
<line x1="9" y1="-9" x2="21" y2="-9" transform="matrix(1 0 0 -1 135 25)" stroke="white" stroke-width="18" stroke-linecap="round"/>
<line x1="9" y1="-9" x2="21" y2="-9" transform="matrix(1 0 0 -1 405 107)" stroke="white" stroke-width="18" stroke-linecap="round"/>
<line x1="9" y1="-9" x2="21" y2="-9" transform="matrix(0 -1 -1 0 557 55)" stroke="white" stroke-width="18" stroke-linecap="round"/>
</svg>
