<svg width="700" height="147" viewBox="0 0 700 147" fill="none" xmlns="http://www.w3.org/2000/svg">
<path fill-rule="evenodd" clip-rule="evenodd" d="M7.3332 139.538V7.22683L478.825 7.31997L348.121 139.538H7.3332ZM18.3736 14.6903C16.346 14.6903 14.7022 16.334 14.7022 18.3616C14.7022 18.4926 14.7091 18.6219 14.7225 18.7492C14.7091 18.8766 14.7022 19.0059 14.7022 19.1368V27.5849C14.7022 29.6126 16.346 31.2563 18.3736 31.2563C20.4013 31.2563 22.045 29.6126 22.045 27.5849V22.033H125.252C127.279 22.033 128.923 20.3893 128.923 18.3616C128.923 16.334 127.279 14.6903 125.252 14.6903H18.3736ZM165.755 14.6903C163.727 14.6903 162.084 16.334 162.084 18.3616C162.084 20.3893 163.727 22.033 165.755 22.033H379.485C381.512 22.033 383.156 20.3893 383.156 18.3616C383.156 16.334 381.512 14.6903 379.485 14.6903H165.755ZM143.648 14.6903C141.62 14.6903 139.977 16.334 139.977 18.3616C139.977 20.3893 141.62 22.033 143.648 22.033H147.359C149.386 22.033 151.03 20.3893 151.03 18.3616C151.03 16.334 149.386 14.6903 147.359 14.6903H143.648ZM14.7022 74.9573C14.7022 76.9849 16.346 78.6286 18.3736 78.6286C20.4013 78.6286 22.045 76.9849 22.045 74.9573V70.4569C22.045 68.4292 20.4013 66.7855 18.3736 66.7855C16.346 66.7855 14.7022 68.4292 14.7022 70.4569V74.9573ZM14.7022 55.2188C14.7022 57.2465 16.346 58.8902 18.3736 58.8902C20.4013 58.8902 22.045 57.2465 22.045 55.2188V42.823C22.045 40.7954 20.4013 39.1516 18.3736 39.1516C16.346 39.1516 14.7022 40.7954 14.7022 42.823V55.2188Z" fill="#1EFFBC"/>
<path d="M365.555 139.538L496.17 7.31997H511.416L380.523 139.538H365.555Z" fill="#1EFFBC"/>
<path fill-rule="evenodd" clip-rule="evenodd" d="M692.657 7.31997V139.563L449.639 139.512L579.82 7.32L692.657 7.31997ZM574.739 125.054C572.711 125.054 571.067 126.698 571.067 128.725C571.067 130.753 572.711 132.397 574.739 132.397H681.617C683.644 132.397 685.288 130.753 685.288 128.725C685.288 128.565 685.278 128.407 685.258 128.252C685.278 128.097 685.288 127.939 685.288 127.778V119.33C685.288 117.302 683.644 115.659 681.617 115.659C679.589 115.659 677.945 117.302 677.945 119.33V125.054H574.739ZM685.288 52.3763C685.288 50.3486 683.644 48.7049 681.617 48.7049C679.589 48.7049 677.945 50.3486 677.945 52.3763V56.8767C677.945 58.9043 679.589 60.548 681.617 60.548C683.644 60.548 685.288 58.9043 685.288 56.8767V52.3763ZM685.288 104.091C685.288 106.119 683.644 107.762 681.617 107.762C679.589 107.762 677.945 106.119 677.945 104.091V72.1256C677.945 70.098 679.589 68.4542 681.617 68.4542C683.644 68.4542 685.288 70.0979 685.288 72.1256V104.091ZM552.632 125.054C550.604 125.054 548.96 126.698 548.96 128.725C548.96 130.753 550.604 132.397 552.632 132.397H556.342C558.37 132.397 560.014 130.753 560.014 128.725C560.014 126.698 558.37 125.054 556.342 125.054H552.632Z" fill="#1EFFBC"/>
<path fill-rule="evenodd" clip-rule="evenodd" d="M0 0V146.855H700V0H0ZM692.657 139.563V7.31997L579.82 7.32L449.639 139.512L692.657 139.563ZM7.3332 7.22683V139.538H348.121L478.825 7.31997L7.3332 7.22683ZM496.17 7.31997L365.555 139.538H380.523L511.416 7.31997H496.17Z" fill="white"/>
<path d="M18.3736 78.6286C16.346 78.6286 14.7022 76.9849 14.7022 74.9573V70.4569C14.7022 68.4292 16.346 66.7855 18.3736 66.7855C20.4013 66.7855 22.045 68.4292 22.045 70.4569V74.9573C22.045 76.9849 20.4013 78.6286 18.3736 78.6286Z" fill="white"/>
<path d="M18.3736 58.8902C16.346 58.8902 14.7022 57.2465 14.7022 55.2188V42.823C14.7022 40.7954 16.346 39.1516 18.3736 39.1516C20.4013 39.1516 22.045 40.7954 22.045 42.823V55.2188C22.045 57.2465 20.4013 58.8902 18.3736 58.8902Z" fill="white"/>
<path d="M14.7022 18.3616C14.7022 16.334 16.346 14.6903 18.3736 14.6903H125.252C127.279 14.6903 128.923 16.334 128.923 18.3616C128.923 20.3893 127.279 22.033 125.252 22.033H22.045V27.5849C22.045 29.6126 20.4013 31.2563 18.3736 31.2563C16.346 31.2563 14.7022 29.6126 14.7022 27.5849V19.1368C14.7022 19.0059 14.7091 18.8766 14.7225 18.7492C14.7091 18.6219 14.7022 18.4926 14.7022 18.3616Z" fill="white"/>
<path d="M139.977 18.3616C139.977 16.334 141.62 14.6903 143.648 14.6903H147.359C149.386 14.6903 151.03 16.334 151.03 18.3616C151.03 20.3893 149.386 22.033 147.359 22.033H143.648C141.62 22.033 139.977 20.3893 139.977 18.3616Z" fill="white"/>
<path d="M162.084 18.3616C162.084 16.334 163.727 14.6903 165.755 14.6903H379.485C381.512 14.6903 383.156 16.334 383.156 18.3616C383.156 20.3893 381.512 22.033 379.485 22.033H165.755C163.727 22.033 162.084 20.3893 162.084 18.3616Z" fill="white"/>
<path d="M548.96 128.725C548.96 126.698 550.604 125.054 552.632 125.054H556.342C558.37 125.054 560.014 126.698 560.014 128.725C560.014 130.753 558.37 132.397 556.342 132.397H552.632C550.604 132.397 548.96 130.753 548.96 128.725Z" fill="white"/>
<path d="M571.067 128.725C571.067 126.698 572.711 125.054 574.739 125.054H677.945V119.33C677.945 117.302 679.589 115.659 681.617 115.659C683.644 115.659 685.288 117.302 685.288 119.33V127.778C685.288 127.939 685.278 128.097 685.258 128.252C685.278 128.407 685.288 128.565 685.288 128.725C685.288 130.753 683.644 132.397 681.617 132.397H574.739C572.711 132.397 571.067 130.753 571.067 128.725Z" fill="white"/>
<path d="M681.617 107.762C683.644 107.762 685.288 106.119 685.288 104.091V72.1256C685.288 70.0979 683.644 68.4542 681.617 68.4542C679.589 68.4542 677.945 70.098 677.945 72.1256V104.091C677.945 106.119 679.589 107.762 681.617 107.762Z" fill="white"/>
<path d="M681.617 48.7049C683.644 48.7049 685.288 50.3486 685.288 52.3763V56.8767C685.288 58.9043 683.644 60.548 681.617 60.548C679.589 60.548 677.945 58.9043 677.945 56.8767V52.3763C677.945 50.3486 679.589 48.7049 681.617 48.7049Z" fill="white"/>
</svg>
